<svg overflow="hidden" xmlns:xlink="http://www.w3.org/1999/xlink" xmlns="http://www.w3.org/2000/svg" viewBox="263.68 40.96 785.92 1044.48" style="max-height: 500px" width="785.92" height="1044.48"><defs><filter primitiveUnits="userSpaceOnUse" filterUnits="userSpaceOnUse" height="120%" width="120%" y="-10%" x="-10%" id="fx0"><feComponentTransfer color-interpolation-filters="sRGB"><feFuncR type="discrete"/><feFuncG type="discrete"/><feFuncB type="discrete"/><feFuncA type="linear"/></feComponentTransfer><feGaussianBlur stdDeviation="1.77778 1.77778"/></filter><filter primitiveUnits="userSpaceOnUse" filterUnits="userSpaceOnUse" height="120%" width="120%" y="-10%" x="-10%" id="fx1"><feComponentTransfer color-interpolation-filters="sRGB"><feFuncR type="discrete"/><feFuncG type="discrete"/><feFuncB type="discrete"/><feFuncA type="linear"/></feComponentTransfer><feGaussianBlur stdDeviation="0.463613 0.463613"/></filter><filter primitiveUnits="userSpaceOnUse" filterUnits="userSpaceOnUse" height="120%" width="120%" y="-10%" x="-10%" id="fx2"><feComponentTransfer color-interpolation-filters="sRGB"><feFuncR type="discrete"/><feFuncG type="discrete"/><feFuncB type="discrete"/><feFuncA type="linear"/></feComponentTransfer><feGaussianBlur stdDeviation="0.463613 0.463613"/></filter><filter primitiveUnits="userSpaceOnUse" filterUnits="userSpaceOnUse" height="120%" width="120%" y="-10%" x="-10%" id="fx3"><feComponentTransfer color-interpolation-filters="sRGB"><feFuncR type="discrete"/><feFuncG type="discrete"/><feFuncB type="discrete"/><feFuncA type="linear"/></feComponentTransfer><feGaussianBlur stdDeviation="0.463613 0.463613"/></filter><filter primitiveUnits="userSpaceOnUse" filterUnits="userSpaceOnUse" height="120%" width="120%" y="-10%" x="-10%" id="fx4"><feComponentTransfer color-interpolation-filters="sRGB"><feFuncR type="discrete"/><feFuncG type="discrete"/><feFuncB type="discrete"/><feFuncA type="linear"/></feComponentTransfer><feGaussianBlur stdDeviation="0.463613 0.463613"/></filter><filter primitiveUnits="userSpaceOnUse" filterUnits="userSpaceOnUse" height="120%" width="120%" y="-10%" x="-10%" id="fx5"><feComponentTransfer color-interpolation-filters="sRGB"><feFuncR type="discrete"/><feFuncG type="discrete"/><feFuncB type="discrete"/><feFuncA type="linear"/></feComponentTransfer><feGaussianBlur stdDeviation="0.463613 0.463613"/></filter><filter primitiveUnits="userSpaceOnUse" filterUnits="userSpaceOnUse" height="120%" width="120%" y="-10%" x="-10%" id="fx6"><feComponentTransfer color-interpolation-filters="sRGB"><feFuncR type="discrete"/><feFuncG type="discrete"/><feFuncB type="discrete"/><feFuncA type="linear"/></feComponentTransfer><feGaussianBlur stdDeviation="0.463613 0.463613"/></filter><filter primitiveUnits="userSpaceOnUse" filterUnits="userSpaceOnUse" height="120%" width="120%" y="-10%" x="-10%" id="fx7"><feComponentTransfer color-interpolation-filters="sRGB"><feFuncR type="discrete"/><feFuncG type="discrete"/><feFuncB type="discrete"/><feFuncA type="linear"/></feComponentTransfer><feGaussianBlur stdDeviation="1.77778 1.77778"/></filter><filter primitiveUnits="userSpaceOnUse" filterUnits="userSpaceOnUse" height="120%" width="120%" y="-10%" x="-10%" id="fx8"><feComponentTransfer color-interpolation-filters="sRGB"><feFuncR type="discrete"/><feFuncG type="discrete"/><feFuncB type="discrete"/><feFuncA type="linear"/></feComponentTransfer><feGaussianBlur stdDeviation="1.77778 1.77778"/></filter><filter primitiveUnits="userSpaceOnUse" filterUnits="userSpaceOnUse" height="120%" width="120%" y="-10%" x="-10%" id="fx9"><feComponentTransfer color-interpolation-filters="sRGB"><feFuncR type="discrete"/><feFuncG type="discrete"/><feFuncB type="discrete"/><feFuncA type="linear"/></feComponentTransfer><feGaussianBlur stdDeviation="1.77778 1.77778"/></filter><filter primitiveUnits="userSpaceOnUse" filterUnits="userSpaceOnUse" height="120%" width="120%" y="-10%" x="-10%" id="fx10"><feComponentTransfer color-interpolation-filters="sRGB"><feFuncR type="discrete"/><feFuncG type="discrete"/><feFuncB type="discrete"/><feFuncA type="linear"/></feComponentTransfer><feGaussianBlur stdDeviation="1.77778 1.77778"/></filter><filter primitiveUnits="userSpaceOnUse" filterUnits="userSpaceOnUse" height="120%" width="120%" y="-10%" x="-10%" id="fx11"><feComponentTransfer color-interpolation-filters="sRGB"><feFuncR type="discrete"/><feFuncG type="discrete"/><feFuncB type="discrete"/><feFuncA type="linear"/></feComponentTransfer><feGaussianBlur stdDeviation="1.77778 1.77778"/></filter><filter primitiveUnits="userSpaceOnUse" filterUnits="userSpaceOnUse" height="120%" width="120%" y="-10%" x="-10%" id="fx12"><feComponentTransfer color-interpolation-filters="sRGB"><feFuncR type="discrete"/><feFuncG type="discrete"/><feFuncB type="discrete"/><feFuncA type="linear"/></feComponentTransfer><feGaussianBlur stdDeviation="1.77778 1.77778"/></filter><filter primitiveUnits="userSpaceOnUse" filterUnits="userSpaceOnUse" height="120%" width="120%" y="-10%" x="-10%" id="fx13"><feComponentTransfer color-interpolation-filters="sRGB"><feFuncR type="discrete"/><feFuncG type="discrete"/><feFuncB type="discrete"/><feFuncA type="linear"/></feComponentTransfer><feGaussianBlur stdDeviation="1.77778 1.77778"/></filter><filter primitiveUnits="userSpaceOnUse" filterUnits="userSpaceOnUse" height="120%" width="120%" y="-10%" x="-10%" id="fx14"><feComponentTransfer color-interpolation-filters="sRGB"><feFuncR type="discrete"/><feFuncG type="discrete"/><feFuncB type="discrete"/><feFuncA type="linear"/></feComponentTransfer><feGaussianBlur stdDeviation="1.77778 1.77778"/></filter><filter primitiveUnits="userSpaceOnUse" filterUnits="userSpaceOnUse" height="120%" width="120%" y="-10%" x="-10%" id="fx15"><feComponentTransfer color-interpolation-filters="sRGB"><feFuncR type="discrete"/><feFuncG type="discrete"/><feFuncB type="discrete"/><feFuncA type="linear"/></feComponentTransfer><feGaussianBlur stdDeviation="1.77778 1.77778"/></filter><filter primitiveUnits="userSpaceOnUse" filterUnits="userSpaceOnUse" height="120%" width="120%" y="-10%" x="-10%" id="fx16"><feComponentTransfer color-interpolation-filters="sRGB"><feFuncR type="discrete"/><feFuncG type="discrete"/><feFuncB type="discrete"/><feFuncA type="linear"/></feComponentTransfer><feGaussianBlur stdDeviation="1.77778 1.77778"/></filter><filter primitiveUnits="userSpaceOnUse" filterUnits="userSpaceOnUse" height="120%" width="120%" y="-10%" x="-10%" id="fx17"><feComponentTransfer color-interpolation-filters="sRGB"><feFuncR type="discrete"/><feFuncG type="discrete"/><feFuncB type="discrete"/><feFuncA type="linear"/></feComponentTransfer><feGaussianBlur stdDeviation="1.77778 1.77778"/></filter><filter primitiveUnits="userSpaceOnUse" filterUnits="userSpaceOnUse" height="120%" width="120%" y="-10%" x="-10%" id="fx18"><feComponentTransfer color-interpolation-filters="sRGB"><feFuncR type="discrete"/><feFuncG type="discrete"/><feFuncB type="discrete"/><feFuncA type="linear"/></feComponentTransfer><feGaussianBlur stdDeviation="0.413243 0.413243"/></filter><filter primitiveUnits="userSpaceOnUse" filterUnits="userSpaceOnUse" height="120%" width="120%" y="-10%" x="-10%" id="fx19"><feComponentTransfer color-interpolation-filters="sRGB"><feFuncR type="discrete"/><feFuncG type="discrete"/><feFuncB type="discrete"/><feFuncA type="linear"/></feComponentTransfer><feGaussianBlur stdDeviation="0.413243 0.413243"/></filter><filter primitiveUnits="userSpaceOnUse" filterUnits="userSpaceOnUse" height="120%" width="120%" y="-10%" x="-10%" id="fx20"><feComponentTransfer color-interpolation-filters="sRGB"><feFuncR type="discrete"/><feFuncG type="discrete"/><feFuncB type="discrete"/><feFuncA type="linear"/></feComponentTransfer><feGaussianBlur stdDeviation="0.413243 0.413243"/></filter><filter primitiveUnits="userSpaceOnUse" filterUnits="userSpaceOnUse" height="120%" width="120%" y="-10%" x="-10%" id="fx21"><feComponentTransfer color-interpolation-filters="sRGB"><feFuncR type="discrete"/><feFuncG type="discrete"/><feFuncB type="discrete"/><feFuncA type="linear"/></feComponentTransfer><feGaussianBlur stdDeviation="1.77778 1.77778"/></filter><filter primitiveUnits="userSpaceOnUse" filterUnits="userSpaceOnUse" height="120%" width="120%" y="-10%" x="-10%" id="fx22"><feComponentTransfer color-interpolation-filters="sRGB"><feFuncR type="discrete"/><feFuncG type="discrete"/><feFuncB type="discrete"/><feFuncA type="linear"/></feComponentTransfer><feGaussianBlur stdDeviation="0.376246 0.376246"/></filter><filter primitiveUnits="userSpaceOnUse" filterUnits="userSpaceOnUse" height="120%" width="120%" y="-10%" x="-10%" id="fx23"><feComponentTransfer color-interpolation-filters="sRGB"><feFuncR type="discrete"/><feFuncG type="discrete"/><feFuncB type="discrete"/><feFuncA type="linear"/></feComponentTransfer><feGaussianBlur stdDeviation="0.376246 0.376246"/></filter><filter primitiveUnits="userSpaceOnUse" filterUnits="userSpaceOnUse" height="120%" width="120%" y="-10%" x="-10%" id="fx24"><feComponentTransfer color-interpolation-filters="sRGB"><feFuncR type="discrete"/><feFuncG type="discrete"/><feFuncB type="discrete"/><feFuncA type="linear"/></feComponentTransfer><feGaussianBlur stdDeviation="0.376246 0.376246"/></filter><filter primitiveUnits="userSpaceOnUse" filterUnits="userSpaceOnUse" height="120%" width="120%" y="-10%" x="-10%" id="fx25"><feComponentTransfer color-interpolation-filters="sRGB"><feFuncR type="discrete"/><feFuncG type="discrete"/><feFuncB type="discrete"/><feFuncA type="linear"/></feComponentTransfer><feGaussianBlur stdDeviation="0.376246 0.376246"/></filter><filter primitiveUnits="userSpaceOnUse" filterUnits="userSpaceOnUse" height="120%" width="120%" y="-10%" x="-10%" id="fx26"><feComponentTransfer color-interpolation-filters="sRGB"><feFuncR type="discrete"/><feFuncG type="discrete"/><feFuncB type="discrete"/><feFuncA type="linear"/></feComponentTransfer><feGaussianBlur stdDeviation="0.376246 0.376246"/></filter><filter primitiveUnits="userSpaceOnUse" filterUnits="userSpaceOnUse" height="120%" width="120%" y="-10%" x="-10%" id="fx27"><feComponentTransfer color-interpolation-filters="sRGB"><feFuncR type="discrete"/><feFuncG type="discrete"/><feFuncB type="discrete"/><feFuncA type="linear"/></feComponentTransfer><feGaussianBlur stdDeviation="0.376246 0.376246"/></filter><filter primitiveUnits="userSpaceOnUse" filterUnits="userSpaceOnUse" height="120%" width="120%" y="-10%" x="-10%" id="fx28"><feComponentTransfer color-interpolation-filters="sRGB"><feFuncR type="discrete"/><feFuncG type="discrete"/><feFuncB type="discrete"/><feFuncA type="linear"/></feComponentTransfer><feGaussianBlur stdDeviation="0.376246 0.376246"/></filter><filter primitiveUnits="userSpaceOnUse" filterUnits="userSpaceOnUse" height="120%" width="120%" y="-10%" x="-10%" id="fx29"><feComponentTransfer color-interpolation-filters="sRGB"><feFuncR type="discrete"/><feFuncG type="discrete"/><feFuncB type="discrete"/><feFuncA type="linear"/></feComponentTransfer><feGaussianBlur stdDeviation="0.376246 0.376246"/></filter><filter primitiveUnits="userSpaceOnUse" filterUnits="userSpaceOnUse" height="120%" width="120%" y="-10%" x="-10%" id="fx30"><feComponentTransfer color-interpolation-filters="sRGB"><feFuncR type="discrete"/><feFuncG type="discrete"/><feFuncB type="discrete"/><feFuncA type="linear"/></feComponentTransfer><feGaussianBlur stdDeviation="0.376246 0.376246"/></filter><clipPath id="clip31"><rect height="4" width="14" y="16" x="12"/></clipPath><clipPath id="clip32"><rect height="14" width="37" y="11" x="12"/></clipPath><clipPath id="clip33"><rect height="4" width="14" y="16" x="12"/></clipPath><clipPath id="clip34"><rect height="5" width="14" y="2" x="2"/></clipPath><linearGradient id="fill35" spreadMethod="reflect" gradientUnits="userSpaceOnUse" y2="249.816" x2="554.475" y1="230.616" x1="554.475"><stop stop-color="#FFCA21" offset="0"/><stop stop-color="#F2A77E" offset="0.5"/><stop stop-color="#ED8A59" offset="1"/></linearGradient><clipPath id="clip36"><rect height="15" width="20" y="1" x="2"/></clipPath><linearGradient id="fill37" spreadMethod="reflect" gradientUnits="userSpaceOnUse" y2="249.816" x2="554.475" y1="230.616" x1="554.475"><stop stop-color="#FFCA21" offset="0"/><stop stop-color="#F2A77E" offset="0.5"/><stop stop-color="#ED8A59" offset="1"/></linearGradient><clipPath id="clip38"><rect height="5" width="14" y="2" x="2"/></clipPath><linearGradient id="fill39" spreadMethod="reflect" gradientUnits="userSpaceOnUse" y2="249.816" x2="554.475" y1="230.616" x1="554.475"><stop stop-color="#FFCA21" offset="0"/><stop stop-color="#F2A77E" offset="0.5"/><stop stop-color="#ED8A59" offset="1"/></linearGradient><clipPath id="clip40"><rect height="31" width="74" y="9" x="13"/></clipPath><clipPath id="clip41"><rect height="31" width="72" y="9" x="13"/></clipPath><clipPath id="clip42"><rect height="31" width="72" y="9" x="13"/></clipPath><clipPath id="clip43"><path clip-rule="evenodd" fill-rule="evenodd" d="M291.167 655C286.656 655 283 658.656 283 663.167L283 695.833C283 700.344 286.656 704 291.167 704L540.833 704C545.344 704 549 700.344 549 695.833L549 663.167C549 658.656 545.344 655 540.833 655ZM1.90735e-05 1.90735e-05 1280 1.90735e-05 1280 1280 1.90735e-05 1280Z"/></clipPath><clipPath id="clip44"><rect height="4" width="12" y="13" x="11"/></clipPath><clipPath id="clip45"><rect height="12" width="31" y="9" x="11"/></clipPath><clipPath id="clip46"><rect height="4" width="12" y="13" x="10"/></clipPath><clipPath id="clip47"><rect height="3" width="11" y="11" x="8"/></clipPath><clipPath id="clip48"><rect height="10" width="14" y="7" x="9"/></clipPath><clipPath id="clip49"><rect height="3" width="10" y="11" x="9"/></clipPath><clipPath id="clip50"><rect height="3" width="11" y="11" x="9"/></clipPath><clipPath id="clip51"><rect height="10" width="14" y="7" x="9"/></clipPath><clipPath id="clip52"><rect height="3" width="10" y="11" x="9"/></clipPath><clipPath id="clip53"><rect height="3" width="10" y="12" x="9"/></clipPath><clipPath id="clip54"><rect height="10" width="14" y="8" x="9"/></clipPath><clipPath id="clip55"><rect height="3" width="10" y="12" x="9"/></clipPath></defs><g><rect fill="#FFFFFF" height="1280" width="1280" y="0" x="0"/><rect fill="#A6CAEC" stroke-miterlimit="8" stroke-width="2" stroke="#042433" height="72" width="735" y="319" x="285"/><text transform="translate(474.335 367)" font-size="32" font-weight="400" font-family="Arial,Arial_MSFontService,sans-serif">Speech Language Model</text><path fill-rule="evenodd" fill="#FFD966" stroke-miterlimit="8" stroke-width="2" stroke="#042433" d="M561 427.667C561 425.642 562.642 424 564.667 424L581.333 424C583.358 424 585 425.642 585 427.667L585 442.333C585 444.358 583.358 446 581.333 446L564.667 446C562.642 446 561 444.358 561 442.333Z"/><path fill-rule="evenodd" fill="#FBE3D6" stroke-miterlimit="8" stroke-width="2" stroke="#042433" d="M613 427.667C613 425.642 614.642 424 616.667 424L632.333 424C634.358 424 636 425.642 636 427.667L636 442.333C636 444.358 634.358 446 632.333 446L616.667 446C614.642 446 613 444.358 613 442.333Z"/><path fill-rule="evenodd" fill="#F6C6AD" stroke-miterlimit="8" stroke-width="2" stroke="#042433" d="M662 427.667C662 425.642 663.642 424 665.667 424L682.333 424C684.358 424 686 425.642 686 427.667L686 442.333C686 444.358 684.358 446 682.333 446L665.667 446C663.642 446 662 444.358 662 442.333Z"/><path fill-rule="evenodd" fill="#FFD966" stroke-miterlimit="8" stroke-width="2" stroke="#042433" d="M711 427.667C711 425.642 712.642 424 714.667 424L731.333 424C733.358 424 735 425.642 735 427.667L735 442.333C735 444.358 733.358 446 731.333 446L714.667 446C712.642 446 711 444.358 711 442.333Z"/><path fill-rule="evenodd" fill="#FBE3D6" stroke-miterlimit="8" stroke-width="2" stroke="#042433" d="M757 427.667C757 425.642 758.642 424 760.667 424L776.333 424C778.358 424 780 425.642 780 427.667L780 442.333C780 444.358 778.358 446 776.333 446L760.667 446C758.642 446 757 444.358 757 442.333Z"/><path fill-rule="evenodd" fill="#F6C6AD" stroke-miterlimit="8" stroke-width="2" stroke="#042433" d="M809 427.667C809 425.642 810.642 424 812.667 424L829.333 424C831.358 424 833 425.642 833 427.667L833 442.333C833 444.358 831.358 446 829.333 446L812.667 446C810.642 446 809 444.358 809 442.333Z"/><path fill-rule="evenodd" fill="#FFD966" stroke-miterlimit="8" stroke-width="2" stroke="#042433" d="M858 427.667C858 425.642 859.642 424 861.667 424L878.333 424C880.358 424 882 425.642 882 427.667L882 442.333C882 444.358 880.358 446 878.333 446L861.667 446C859.642 446 858 444.358 858 442.333Z"/><path fill-rule="evenodd" fill="#FBE3D6" stroke-miterlimit="8" stroke-width="2" stroke="#042433" d="M908 427.667C908 425.642 909.642 424 911.667 424L927.333 424C929.358 424 931 425.642 931 427.667L931 442.333C931 444.358 929.358 446 927.333 446L911.667 446C909.642 446 908 444.358 908 442.333Z"/><path fill-rule="evenodd" fill="#F6C6AD" stroke-miterlimit="8" stroke-width="2" stroke="#042433" d="M956 427.667C956 425.642 957.642 424 959.667 424L976.333 424C978.358 424 980 425.642 980 427.667L980 442.333C980 444.358 978.358 446 976.333 446L959.667 446C957.642 446 956 444.358 956 442.333Z"/><path transform="matrix(1 0 0 -1 527.5 212.523)" d="M0.666667-2.05716e-06 0.666751 27.3566-0.666582 27.3566-0.666667 2.05716e-06ZM4.00008 26.0233 0.000104987 34.0233-3.99992 26.0233Z"/><path transform="matrix(1 0 0 -1 571.5 212.523)" d="M0.666667-2.05716e-06 0.666751 27.3566-0.666582 27.3566-0.666667 2.05716e-06ZM4.00008 26.0233 0.000104987 34.0233-3.99992 26.0233Z"/><path transform="matrix(1 0 0 -1 622.5 212.523)" d="M0.666667-2.05716e-06 0.666751 27.3566-0.666582 27.3566-0.666667 2.05716e-06ZM4.00008 26.0233 0.000104987 34.0233-3.99992 26.0233Z"/><path fill-rule="evenodd" fill="#FFD966" stroke-miterlimit="8" stroke-width="2" stroke="#042433" d="M514 159.5C514 157.567 515.567 156 517.5 156L534.5 156C536.433 156 538 157.567 538 159.5L538 173.5C538 175.433 536.433 177 534.5 177L517.5 177C515.567 177 514 175.433 514 173.5Z"/><path fill-rule="evenodd" fill="#FBE3D6" stroke-miterlimit="8" stroke-width="2" stroke="#042433" d="M559 159.5C559 157.567 560.567 156 562.5 156L578.5 156C580.433 156 582 157.567 582 159.5L582 173.5C582 175.433 580.433 177 578.5 177L562.5 177C560.567 177 559 175.433 559 173.5Z"/><path fill-rule="evenodd" fill="#F6C6AD" stroke-miterlimit="8" stroke-width="2" stroke="#042433" d="M611 159.5C611 157.567 612.567 156 614.5 156L630.5 156C632.433 156 634 157.567 634 159.5L634 173.5C634 175.433 632.433 177 630.5 177L614.5 177C612.567 177 611 175.433 611 173.5Z"/><path transform="matrix(1 0 0 -1 674.5 212.523)" d="M0.666667-2.05716e-06 0.666751 27.3566-0.666582 27.3566-0.666667 2.05716e-06ZM4.00008 26.0233 0.000104987 34.0233-3.99992 26.0233Z"/><path transform="matrix(1 0 0 -1 719.5 212.523)" d="M0.666667-2.05716e-06 0.666751 27.3566-0.666582 27.3566-0.666667 2.05716e-06ZM4.00008 26.0233 0.000104987 34.0233-3.99992 26.0233Z"/><path transform="matrix(1 0 0 -1 768.5 212.523)" d="M0.666667-2.05716e-06 0.666751 27.3566-0.666582 27.3566-0.666667 2.05716e-06ZM4.00008 26.0233 0.000104987 34.0233-3.99992 26.0233Z"/><path fill-rule="evenodd" fill="#FFD966" stroke-miterlimit="8" stroke-width="2" stroke="#042433" d="M661 159.5C661 157.567 662.567 156 664.5 156L681.5 156C683.433 156 685 157.567 685 159.5L685 173.5C685 175.433 683.433 177 681.5 177L664.5 177C662.567 177 661 175.433 661 173.5Z"/><path fill-rule="evenodd" fill="#FBE3D6" stroke-miterlimit="8" stroke-width="2" stroke="#042433" d="M707 159.5C707 157.567 708.567 156 710.5 156L727.5 156C729.433 156 731 157.567 731 159.5L731 173.5C731 175.433 729.433 177 727.5 177L710.5 177C708.567 177 707 175.433 707 173.5Z"/><path fill-rule="evenodd" fill="#F6C6AD" stroke-miterlimit="8" stroke-width="2" stroke="#042433" d="M757 159.5C757 157.567 758.567 156 760.5 156L776.5 156C778.433 156 780 157.567 780 159.5L780 173.5C780 175.433 778.433 177 776.5 177L760.5 177C758.567 177 757 175.433 757 173.5Z"/><path transform="matrix(1 0 0 -1 819.5 213.523)" d="M0.666667-2.05716e-06 0.666751 27.3566-0.666582 27.3566-0.666667 2.05716e-06ZM4.00008 26.0233 0.000104987 34.0233-3.99992 26.0233Z"/><path fill-rule="evenodd" fill="#FFD966" stroke-miterlimit="8" stroke-width="2" stroke="#042433" d="M806 159.667C806 157.642 807.642 156 809.667 156L826.333 156C828.358 156 830 157.642 830 159.667L830 174.333C830 176.358 828.358 178 826.333 178L809.667 178C807.642 178 806 176.358 806 174.333Z"/><path transform="matrix(1 0 0 -1 867.5 212.523)" d="M0.666667-2.05716e-06 0.666751 27.3566-0.666582 27.3566-0.666667 2.05716e-06ZM4.00008 26.0233 0.000104987 34.0233-3.99992 26.0233Z"/><path fill-rule="evenodd" fill="#FBE3D6" stroke-miterlimit="8" stroke-width="2" stroke="#042433" d="M855 159.667C855 157.642 856.642 156 858.667 156L875.333 156C877.358 156 879 157.642 879 159.667L879 174.333C879 176.358 877.358 178 875.333 178L858.667 178C856.642 178 855 176.358 855 174.333Z"/><path transform="matrix(1 0 0 -1 917.5 212.523)" d="M0.666667-2.05716e-06 0.666751 27.3566-0.666582 27.3566-0.666667 2.05716e-06ZM4.00008 26.0233 0.000104987 34.0233-3.99992 26.0233Z"/><path fill-rule="evenodd" fill="#F6C6AD" stroke-miterlimit="8" stroke-width="2" stroke="#042433" d="M905 159.5C905 157.567 906.567 156 908.5 156L925.5 156C927.433 156 929 157.567 929 159.5L929 173.5C929 175.433 927.433 177 925.5 177L908.5 177C906.567 177 905 175.433 905 173.5Z"/><path fill-rule="evenodd" fill="#F2F2F2" stroke-miterlimit="8" stroke-width="2" stroke="#747474" d="M283 222.334C283 217.179 287.179 213 292.334 213L1009.67 213C1014.82 213 1019 217.179 1019 222.334L1019 259.666C1019 264.821 1014.82 269 1009.67 269L292.334 269C287.179 269 283 264.821 283 259.666Z"/><text transform="translate(642.04 249)" font-size="24" font-weight="400" font-family="Arial,Arial_MSFontService,sans-serif">Text</text><text transform="translate(692.714 249)" font-size="24" font-weight="400" font-family="Arial,Arial_MSFontService,sans-serif">and</text><text transform="translate(739.38 249)" font-size="24" font-weight="400" font-family="Arial,Arial_MSFontService,sans-serif">Speech</text><text transform="translate(827.38 249)" font-size="24" font-weight="400" font-family="Arial,Arial_MSFontService,sans-serif">Head</text><path fill-rule="evenodd" fill="#D1D1D1" stroke-miterlimit="8" stroke-width="2" stroke="#042433" d="M414 427.667C414 425.642 415.642 424 417.667 424L434.333 424C436.358 424 438 425.642 438 427.667L438 442.333C438 444.358 436.358 446 434.333 446L417.667 446C415.642 446 414 444.358 414 442.333Z"/><path fill-rule="evenodd" fill="#D1D1D1" stroke-miterlimit="8" stroke-width="2" stroke="#042433" d="M464 427.667C464 425.642 465.642 424 467.667 424L484.333 424C486.358 424 488 425.642 488 427.667L488 442.333C488 444.358 486.358 446 484.333 446L467.667 446C465.642 446 464 444.358 464 442.333Z"/><path fill-rule="evenodd" fill="#D1D1D1" stroke-miterlimit="8" stroke-width="2" stroke="#042433" d="M363 427.667C363 425.642 364.642 424 366.667 424L383.333 424C385.358 424 387 425.642 387 427.667L387 442.333C387 444.358 385.358 446 383.333 446L366.667 446C364.642 446 363 444.358 363 442.333Z"/><path fill-rule="evenodd" fill="#E8E8E8" stroke-miterlimit="8" stroke-width="2" stroke="#747474" d="M293 468.167C293 463.656 296.656 460 301.167 460L505.833 460C510.344 460 514 463.656 514 468.167L514 500.833C514 505.344 510.344 509 505.833 509L301.167 509C296.656 509 293 505.344 293 500.833Z"/><text transform="translate(340.13 492)" font-size="20" font-weight="400" font-family="Arial,Arial_MSFontService,sans-serif">Text Tokenizer</text><path fill-rule="evenodd" fill="none" stroke-miterlimit="8" stroke-width="1.33333" stroke="#042433" d="M314.5 428.167C314.5 426.142 316.142 424.5 318.167 424.5L333.833 424.5C335.858 424.5 337.5 426.142 337.5 428.167L337.5 442.833C337.5 444.858 335.858 446.5 333.833 446.5L318.167 446.5C316.142 446.5 314.5 444.858 314.5 442.833Z"/><text transform="translate(320.678 441)" font-size="16" font-weight="400" font-family="Arial,Arial_MSFontService,sans-serif">T</text><path fill-rule="evenodd" fill="none" stroke-miterlimit="8" stroke-width="1.33333" stroke="#042433" d="M514.5 428.167C514.5 426.142 516.142 424.5 518.167 424.5L533.833 424.5C535.858 424.5 537.5 426.142 537.5 428.167L537.5 442.833C537.5 444.858 535.858 446.5 533.833 446.5L518.167 446.5C516.142 446.5 514.5 444.858 514.5 442.833Z"/><text transform="translate(520.316 441)" font-size="16" font-weight="400" font-family="Arial,Arial_MSFontService,sans-serif">S</text><path fill-rule="evenodd" fill="#F6C6AD" stroke-miterlimit="8" stroke-width="2" stroke="#F2AA84" d="M563 468.167C563 463.656 566.656 460 571.166 460L993.833 460C998.344 460 1002 463.656 1002 468.167L1002 500.833C1002 505.344 998.344 509 993.833 509L571.166 509C566.656 509 563 505.344 563 500.833Z"/><text transform="translate(687.855 493)" font-size="24" font-weight="400" font-family="Arial,Arial_MSFontService,sans-serif">Speech Tokenizer</text><path transform="matrix(1 0 0 -1 326.5 424.161)" d="M0.666659-0.00323366 0.792747 25.9915-0.54057 25.998-0.666659 0.00323366ZM4.11957 24.642 0.158425 32.6613-3.88033 24.6808Z"/><path transform="matrix(1 0 0 -1 375.5 424.161)" d="M0.666659-0.00323366 0.792747 25.9915-0.54057 25.998-0.666659 0.00323366ZM4.11957 24.642 0.158425 32.6613-3.88033 24.6808Z"/><path transform="matrix(1 0 0 -1 425.5 424.161)" d="M0.666659-0.00323366 0.792747 25.9915-0.54057 25.998-0.666659 0.00323366ZM4.11957 24.642 0.158425 32.6613-3.88033 24.6808Z"/><path transform="matrix(1 0 0 -1 474.5 424.161)" d="M0.666659-0.00323366 0.792747 25.9915-0.54057 25.998-0.666659 0.00323366ZM4.11957 24.642 0.158425 32.6613-3.88033 24.6808Z"/><path transform="matrix(1 0 0 -1 526.5 424.161)" d="M0.666659-0.00323366 0.792747 25.9915-0.54057 25.998-0.666659 0.00323366ZM4.11957 24.642 0.158425 32.6613-3.88033 24.6808Z"/><path transform="matrix(1 0 0 -1 573.5 424.229)" d="M0.666667-2.13852e-06 0.66675 26.0621-0.666583 26.0622-0.666667 2.13852e-06ZM4.00008 24.7288 0.000104987 32.7288-3.99992 24.7288Z"/><path transform="matrix(1 0 0 -1 768.5 424.229)" d="M0.666667-2.13852e-06 0.66675 26.0621-0.666583 26.0622-0.666667 2.13852e-06ZM4.00008 24.7288 0.000104987 32.7288-3.99992 24.7288Z"/><path transform="matrix(1 0 0 -1 820.5 424.161)" d="M0.666659-0.00323366 0.792747 25.9915-0.54057 25.998-0.666659 0.00323366ZM4.11957 24.642 0.158425 32.6613-3.88033 24.6808Z"/><path transform="matrix(1 0 0 -1 870.5 424.161)" d="M0.666659-0.00323366 0.792747 25.9915-0.54057 25.998-0.666659 0.00323366ZM4.11957 24.642 0.158425 32.6613-3.88033 24.6808Z"/><path transform="matrix(1 0 0 -1 918.5 424.229)" d="M0.666667-2.13852e-06 0.66675 26.0621-0.666583 26.0622-0.666667 2.13852e-06ZM4.00008 24.7288 0.000104987 32.7288-3.99992 24.7288Z"/><path transform="matrix(1 0 0 -1 968.5 424.161)" d="M0.666659-0.00323366 0.792747 25.9915-0.54057 25.998-0.666659 0.00323366ZM4.11957 24.642 0.158425 32.6613-3.88033 24.6808Z"/><path transform="matrix(1 0 0 -1 624.5 424.161)" d="M0.666659-0.00323366 0.792747 25.9915-0.54057 25.998-0.666659 0.00323366ZM4.11957 24.642 0.158425 32.6613-3.88033 24.6808Z"/><path transform="matrix(1 0 0 -1 673.5 424.161)" d="M0.666659-0.00323366 0.792747 25.9915-0.54057 25.998-0.666659 0.00323366ZM4.11957 24.642 0.158425 32.6613-3.88033 24.6808Z"/><path transform="matrix(1 0 0 -1 723.5 424.229)" d="M0.666667-2.13852e-06 0.66675 26.0621-0.666583 26.0622-0.666667 2.13852e-06ZM4.00008 24.7288 0.000104987 32.7288-3.99992 24.7288Z"/><path transform="matrix(1 0 0 -1 326.5 319.044)" d="M0.666663-0.00213177 0.803771 42.8751-0.529556 42.8793-0.666663 0.00213177ZM4.13282 41.5311 0.158425 49.5438-3.86714 41.5567Z"/><path transform="matrix(1 0 0 -1 374.5 320.044)" d="M0.666663-0.00213177 0.803771 42.8751-0.529556 42.8793-0.666663 0.00213177ZM4.13282 41.5311 0.158425 49.5438-3.86714 41.5567Z"/><path transform="matrix(1 0 0 -1 423.5 320.044)" d="M0.666663-0.00213177 0.803771 42.8751-0.529556 42.8793-0.666663 0.00213177ZM4.13282 41.5311 0.158425 49.5438-3.86714 41.5567Z"/><path transform="matrix(1 0 0 -1 473.5 320.044)" d="M0.666663-0.00213177 0.803771 42.8751-0.529556 42.8793-0.666663 0.00213177ZM4.13282 41.5311 0.158425 49.5438-3.86714 41.5567Z"/><path transform="matrix(1 0 0 -1 524.5 320.044)" d="M0.666663-0.00213177 0.803771 42.8751-0.529556 42.8793-0.666663 0.00213177ZM4.13282 41.5311 0.158425 49.5438-3.86714 41.5567Z"/><path transform="matrix(1 0 0 -1 571.5 320.044)" d="M0.666663-0.00213177 0.803771 42.8751-0.529556 42.8793-0.666663 0.00213177ZM4.13282 41.5311 0.158425 49.5438-3.86714 41.5567Z"/><path transform="matrix(1 0 0 -1 768.5 320.044)" d="M0.666663-0.00213177 0.803771 42.8751-0.529556 42.8793-0.666663 0.00213177ZM4.13282 41.5311 0.158425 49.5438-3.86714 41.5567Z"/><path transform="matrix(1 0 0 -1 818.5 320.044)" d="M0.666663-0.00213177 0.803771 42.8751-0.529556 42.8793-0.666663 0.00213177ZM4.13282 41.5311 0.158425 49.5438-3.86714 41.5567Z"/><path transform="matrix(1 0 0 -1 868.5 320.044)" d="M0.666663-0.00213177 0.803771 42.8751-0.529556 42.8793-0.666663 0.00213177ZM4.13282 41.5311 0.158425 49.5438-3.86714 41.5567Z"/><path transform="matrix(1 0 0 -1 916.5 320.044)" d="M0.666663-0.00213177 0.803771 42.8751-0.529556 42.8793-0.666663 0.00213177ZM4.13282 41.5311 0.158425 49.5438-3.86714 41.5567Z"/><path transform="matrix(1 0 0 -1 967.5 320.044)" d="M0.666663-0.00213177 0.803771 42.8751-0.529556 42.8793-0.666663 0.00213177ZM4.13282 41.5311 0.158425 49.5438-3.86714 41.5567Z"/><path transform="matrix(1 0 0 -1 623.5 320.044)" d="M0.666663-0.00213177 0.803771 42.8751-0.529556 42.8793-0.666663 0.00213177ZM4.13282 41.5311 0.158425 49.5438-3.86714 41.5567Z"/><path transform="matrix(1 0 0 -1 672.5 320.044)" d="M0.666663-0.00213177 0.803771 42.8751-0.529556 42.8793-0.666663 0.00213177ZM4.13282 41.5311 0.158425 49.5438-3.86714 41.5567Z"/><path transform="matrix(1 0 0 -1 720.5 320.044)" d="M0.666663-0.00213177 0.803771 42.8751-0.529556 42.8793-0.666663 0.00213177ZM4.13282 41.5311 0.158425 49.5438-3.86714 41.5567Z"/><path transform="matrix(1 0 0 -1 326.5 214.523)" d="M0.666667-2.05716e-06 0.666751 27.3566-0.666582 27.3566-0.666667 2.05716e-06ZM4.00008 26.0233 0.000104987 34.0233-3.99992 26.0233Z"/><path transform="matrix(1 0 0 -1 375.5 214.523)" d="M0.666667-2.05716e-06 0.666751 27.3566-0.666582 27.3566-0.666667 2.05716e-06ZM4.00008 26.0233 0.000104987 34.0233-3.99992 26.0233Z"/><path transform="matrix(1 0 0 -1 425.5 214.523)" d="M0.666667-2.05716e-06 0.666751 27.3566-0.666582 27.3566-0.666667 2.05716e-06ZM4.00008 26.0233 0.000104987 34.0233-3.99992 26.0233Z"/><path transform="matrix(1 0 0 -1 474.5 214.523)" d="M0.666667-2.05716e-06 0.666751 27.3566-0.666582 27.3566-0.666667 2.05716e-06ZM4.00008 26.0233 0.000104987 34.0233-3.99992 26.0233Z"/><path fill-rule="evenodd" fill="#D1D1D1" stroke-miterlimit="8" stroke-width="2" stroke="#042433" d="M314 159.667C314 157.642 315.642 156 317.667 156L334.333 156C336.358 156 338 157.642 338 159.667L338 174.333C338 176.358 336.358 178 334.333 178L317.667 178C315.642 178 314 176.358 314 174.333Z"/><path fill-rule="evenodd" fill="#D1D1D1" stroke-miterlimit="8" stroke-width="2" stroke="#042433" d="M363 159.667C363 157.642 364.642 156 366.667 156L382.333 156C384.358 156 386 157.642 386 159.667L386 174.333C386 176.358 384.358 178 382.333 178L366.667 178C364.642 178 363 176.358 363 174.333Z"/><path fill-rule="evenodd" fill="#D1D1D1" stroke-miterlimit="8" stroke-width="2" stroke="#042433" d="M413 160.667C413 158.642 414.642 157 416.667 157L432.333 157C434.358 157 436 158.642 436 160.667L436 175.333C436 177.358 434.358 179 432.333 179L416.667 179C414.642 179 413 177.358 413 175.333Z"/><path fill-rule="evenodd" fill="#D1D1D1" stroke-miterlimit="8" stroke-width="2" stroke="#042433" d="M462 159.667C462 157.642 463.642 156 465.667 156L482.333 156C484.358 156 486 157.642 486 159.667L486 174.333C486 176.358 484.358 178 482.333 178L465.667 178C463.642 178 462 176.358 462 174.333Z"/><path fill-rule="evenodd" fill="#FFD966" stroke-miterlimit="8" stroke-width="1.33333" stroke="#000000" d="M338.5 77.1668C338.5 75.1417 340.142 73.5001 342.167 73.5001L358.833 73.5001C360.858 73.5001 362.5 75.1417 362.5 77.1668L362.5 91.8333C362.5 93.8584 360.858 95.5001 358.833 95.5001L342.167 95.5001C340.142 95.5001 338.5 93.8584 338.5 91.8333Z"/><path fill-rule="evenodd" fill="#FBE3D6" stroke-miterlimit="8" stroke-width="1.33333" stroke="#000000" d="M532.5 76.1668C532.5 74.1417 534.142 72.5001 536.167 72.5001L551.833 72.5001C553.858 72.5001 555.5 74.1417 555.5 76.1668L555.5 90.8333C555.5 92.8584 553.858 94.5001 551.833 94.5001L536.167 94.5001C534.142 94.5001 532.5 92.8584 532.5 90.8333Z"/><path fill-rule="evenodd" fill="#F6C6AD" stroke-miterlimit="8" stroke-width="1.33333" stroke="#000000" d="M745.5 76.1668C745.5 74.1417 747.142 72.5001 749.167 72.5001L765.833 72.5001C767.858 72.5001 769.5 74.1417 769.5 76.1668L769.5 90.8333C769.5 92.8584 767.858 94.5001 765.833 94.5001L749.167 94.5001C747.142 94.5001 745.5 92.8584 745.5 90.8333Z"/><path fill-rule="evenodd" fill="#D1D1D1" stroke-miterlimit="8" stroke-width="1.33333" stroke="#000000" d="M338.5 117.167C338.5 115.142 340.142 113.5 342.167 113.5L358.833 113.5C360.858 113.5 362.5 115.142 362.5 117.167L362.5 131.833C362.5 133.858 360.858 135.5 358.833 135.5L342.167 135.5C340.142 135.5 338.5 133.858 338.5 131.833Z"/><path fill-rule="evenodd" fill="none" stroke-miterlimit="8" stroke-width="1.33333" stroke="#042433" d="M953.5 160.167C953.5 158.142 955.142 156.5 957.167 156.5L973.833 156.5C975.858 156.5 977.5 158.142 977.5 160.167L977.5 174.833C977.5 176.858 975.858 178.5 973.833 178.5L957.167 178.5C955.142 178.5 953.5 176.858 953.5 174.833Z"/><text transform="translate(959.667 174)" font-size="16" font-weight="400" font-family="Arial,Arial_MSFontService,sans-serif">E</text><path transform="matrix(1 0 0 -1 965.5 213.523)" d="M0.666667-2.05716e-06 0.666751 27.3566-0.666582 27.3566-0.666667 2.05716e-06ZM4.00008 26.0233 0.000104987 34.0233-3.99992 26.0233Z"/><path fill-rule="evenodd" fill="none" stroke-miterlimit="8" stroke-width="2" stroke="#000000" d="M283 76.3332C283 68.9695 288.969 63 296.333 63L1005.67 63C1013.03 63 1019 68.9695 1019 76.3332L1019 129.667C1019 137.031 1013.03 143 1005.67 143L296.333 143C288.969 143 283 137.031 283 129.667Z"/><path fill-rule="evenodd" fill="none" stroke-miterlimit="8" stroke-width="1.33333" stroke="#042433" d="M913.5 116.167C913.5 114.142 915.142 112.5 917.167 112.5L933.833 112.5C935.858 112.5 937.5 114.142 937.5 116.167L937.5 130.833C937.5 132.858 935.858 134.5 933.833 134.5L917.167 134.5C915.142 134.5 913.5 132.858 913.5 130.833Z"/><text transform="translate(919.735 130)" font-size="16" font-weight="400" font-family="Arial,Arial_MSFontService,sans-serif">E</text><text transform="translate(578.243 543)" font-size="24" font-weight="400" font-family="Arial,Arial_MSFontService,sans-serif">(a) NTP</text><text transform="translate(370.977 94)" font-size="21" font-weight="400" font-family="Arial,Arial_MSFontService,sans-serif">Prosody Token</text><text transform="translate(562.845 94)" font-size="21" font-weight="400" font-family="Arial,Arial_MSFontService,sans-serif">Conten</text><text transform="translate(631.512 94)" font-size="21" font-weight="400" font-family="Arial,Arial_MSFontService,sans-serif">t</text><text transform="translate(637.512 98)" font-size="14" font-weight="400" font-family="Arial,Arial_MSFontService,sans-serif">1</text><text transform="translate(649.085 94)" font-size="21" font-weight="400" font-family="Arial,Arial_MSFontService,sans-serif">Token</text><text transform="translate(778.402 92)" font-size="21" font-weight="400" font-family="Arial,Arial_MSFontService,sans-serif">Conten</text><text transform="translate(847.069 92)" font-size="21" font-weight="400" font-family="Arial,Arial_MSFontService,sans-serif">t</text><text transform="translate(853.069 96)" font-size="14" font-weight="400" font-family="Arial,Arial_MSFontService,sans-serif">2</text><text transform="translate(866.515 92)" font-size="21" font-weight="400" font-family="Arial,Arial_MSFontService,sans-serif">Token</text><text transform="translate(369.526 134)" font-size="21" font-weight="400" font-family="Arial,Arial_MSFontService,sans-serif">Text Token</text><path fill-rule="evenodd" fill="none" stroke-miterlimit="8" stroke-width="1.33333" stroke="#042433" d="M531.5 117.167C531.5 115.142 533.142 113.5 535.167 113.5L551.833 113.5C553.858 113.5 555.5 115.142 555.5 117.167L555.5 131.833C555.5 133.858 553.858 135.5 551.833 135.5L535.167 135.5C533.142 135.5 531.5 133.858 531.5 131.833Z"/><text transform="translate(537.624 130)" font-size="16" font-weight="400" font-family="Arial,Arial_MSFontService,sans-serif">S</text><path fill-rule="evenodd" fill="none" stroke-miterlimit="8" stroke-width="1.33333" stroke="#042433" d="M744.5 118.167C744.5 116.142 746.142 114.5 748.167 114.5L763.833 114.5C765.858 114.5 767.5 116.142 767.5 118.167L767.5 132.833C767.5 134.858 765.858 136.5 763.833 136.5L748.167 136.5C746.142 136.5 744.5 134.858 744.5 132.833Z"/><text transform="translate(750.671 131)" font-size="16" font-weight="400" font-family="Arial,Arial_MSFontService,sans-serif">T</text><text transform="translate(775.493 133)" font-size="21" font-weight="400" font-family="Arial,Arial_MSFontService,sans-serif">Start of Text</text><text transform="translate(943.804 132)" font-size="21" font-weight="400" font-family="Arial,Arial_MSFontService,sans-serif">End</text><text transform="translate(562.686 133)" font-size="21" font-weight="400" font-family="Arial,Arial_MSFontService,sans-serif">Start of Speech</text><g transform="translate(318 221)" filter="url(#fx0)"><g><path fill-rule="evenodd" fill="#EAE4D5" d="M6.82843 12.1619C6.82843 9.2163 9.21627 6.82843 12.1618 6.82843L314.495 6.82843C317.441 6.82843 319.828 9.2163 319.828 12.1619L319.828 33.495C319.828 36.4406 317.441 38.8284 314.495 38.8284L12.1618 38.8284C9.21627 38.8284 6.82843 36.4406 6.82843 33.495Z"/></g></g><path fill-rule="evenodd" fill="#EAE4D5" d="M322 230.333C322 227.388 324.388 225 327.333 225L629.667 225C632.612 225 635 227.388 635 230.333L635 251.667C635 254.612 632.612 257 629.667 257L327.333 257C324.388 257 322 254.612 322 251.667Z"/><path fill-rule="evenodd" fill="#D1D1D1" stroke-miterlimit="8" stroke-width="2" stroke="#042433" d="M332 235.5C332 234.119 333.119 233 334.5 233L345.5 233C346.881 233 348 234.119 348 235.5L348 245.5C348 246.881 346.881 248 345.5 248L334.5 248C333.119 248 332 246.881 332 245.5Z"/><path fill-rule="evenodd" fill="#D1D1D1" stroke-miterlimit="8" stroke-width="2" stroke="#042433" d="M420 235.667C420 234.194 421.194 233 422.667 233L433.333 233C434.806 233 436 234.194 436 235.667L436 246.333C436 247.806 434.806 249 433.333 249L422.667 249C421.194 249 420 247.806 420 246.333Z"/><path fill-rule="evenodd" fill="#D1D1D1" stroke-miterlimit="8" stroke-width="2" stroke="#042433" d="M443 235.667C443 234.194 444.194 233 445.667 233L456.333 233C457.806 233 459 234.194 459 235.667L459 246.333C459 247.806 457.806 249 456.333 249L445.667 249C444.194 249 443 247.806 443 246.333Z"/><g transform="translate(340 224)" filter="url(#fx1)" clip-path="url(#clip31)"><g><path transform="translate(12.494 23)" d="M0.984375-4.13281 0.984375-6.17969 2.86719-6.17969 2.86719-4.13281ZM5.57031-4.13281 5.57031-6.17969 7.44531-6.17969 7.44531-4.13281ZM10.1484-4.13281 10.1484-6.17969 12.0312-6.17969 12.0312-4.13281Z"/></g></g><text transform="translate(351.9 246)" font-size="16" font-weight="700" font-family="DengXian,DengXian_MSFontService,sans-serif">…</text><g transform="translate(353 223)" filter="url(#fx2)" clip-path="url(#clip32)"><g><path transform="translate(12.494 24)" fill="#525252" d="M6.29688 0 4.10156 0 4.10156-8.27344C3.29948-7.52344 2.35417-6.96875 1.26562-6.60938L1.26562-8.60156C1.83854-8.78906 2.46094-9.14453 3.13281-9.66797 3.80469-10.1914 4.26562-10.8021 4.51562-11.5L6.29688-11.5ZM9.54427-2.94531 11.7318-3.17188C11.7943-2.67708 11.9792-2.28516 12.2865-1.99609 12.5938-1.70703 12.9479-1.5625 13.349-1.5625 13.8073-1.5625 14.1953-1.7487 14.513-2.12109 14.8307-2.49349 14.9896-3.05469 14.9896-3.80469 14.9896-4.50781 14.832-5.03516 14.5169-5.38672 14.2018-5.73828 13.7917-5.91406 13.2865-5.91406 12.6562-5.91406 12.0911-5.63542 11.5911-5.07812L9.8099-5.33594 10.9349-11.2969 16.7396-11.2969 16.7396-9.24219 12.599-9.24219 12.2552-7.29688C12.7448-7.54167 13.2448-7.66406 13.7552-7.66406 14.7292-7.66406 15.5547-7.3099 16.2318-6.60156 16.9089-5.89323 17.2474-4.97396 17.2474-3.84375 17.2474-2.90104 16.974-2.0599 16.4271-1.32031 15.6823-0.309896 14.6484 0.195312 13.3255 0.195312 12.2682 0.195312 11.4062-0.0885417 10.7396-0.65625 10.0729-1.22396 9.67448-1.98698 9.54427-2.94531ZM23.9635 0 21.7682 0 21.7682-8.27344C20.9661-7.52344 20.0208-6.96875 18.9323-6.60938L18.9323-8.60156C19.5052-8.78906 20.1276-9.14453 20.7995-9.66797 21.4714-10.1914 21.9323-10.8021 22.1823-11.5L23.9635-11.5ZM27.5703 0 27.5703-11.4531 29.7656-11.4531 29.7656-5.375 32.3359-8.29688 35.0391-8.29688 32.2031-5.26562 35.2422 0 32.875 0 30.7891-3.72656 29.7656-2.65625 29.7656 0Z"/></g></g><text transform="translate(364.9 246)" font-size="16" font-weight="700" font-family="Arial,Arial_MSFontService,sans-serif" fill="#525252">151k</text><g transform="translate(393 224)" filter="url(#fx3)" clip-path="url(#clip33)"><g><path transform="translate(12.1607 23)" d="M0.984375-4.13281 0.984375-6.17969 2.86719-6.17969 2.86719-4.13281ZM5.57031-4.13281 5.57031-6.17969 7.44531-6.17969 7.44531-4.13281ZM10.1484-4.13281 10.1484-6.17969 12.0312-6.17969 12.0312-4.13281Z"/></g></g><text transform="translate(404.566 246)" font-size="16" font-weight="700" font-family="DengXian,DengXian_MSFontService,sans-serif">…</text><path fill-rule="evenodd" fill="#FFD966" stroke-miterlimit="8" stroke-width="2" stroke="#042433" d="M515 235.5C515 234.119 516.119 233 517.5 233L529.5 233C530.881 233 532 234.119 532 235.5L532 245.5C532 246.881 530.881 248 529.5 248L517.5 248C516.119 248 515 246.881 515 245.5Z"/><path fill-rule="evenodd" fill="#FBE3D6" stroke-miterlimit="8" stroke-width="2" stroke="#042433" d="M583 236.5C583 235.119 584.119 234 585.5 234L596.5 234C597.881 234 599 235.119 599 236.5L599 246.5C599 247.881 597.881 249 596.5 249L585.5 249C584.119 249 583 247.881 583 246.5Z"/><path fill-rule="evenodd" fill="#F6C6AD" stroke-miterlimit="8" stroke-width="2" stroke="#042433" d="M606 236.5C606 235.119 607.119 234 608.5 234L620.5 234C621.881 234 623 235.119 623 236.5L623 246.5C623 247.881 621.881 249 620.5 249L608.5 249C607.119 249 606 247.881 606 246.5Z"/><g transform="translate(533 237)" filter="url(#fx4)" clip-path="url(#clip34)"><g><path fill-rule="evenodd" fill="#FF0000" d="M12.5511 3.03103 14.4339 3.03103 14.4339 5.07791 12.5511 5.07791ZM7.97299 3.03103 9.84799 3.03103 9.84799 5.07791 7.97299 5.07791ZM3.38706 3.03103 5.26987 3.03103 5.26987 5.07791 3.38706 5.07791Z"/></g></g><path fill-rule="evenodd" fill="url(#fill35)" d="M544.957 239.437 546.84 239.437 546.84 241.484 544.957 241.484ZM540.379 239.437 542.254 239.437 542.254 241.484 540.379 241.484ZM535.793 239.437 537.676 239.437 537.676 241.484 535.793 241.484Z"/><text y="241.228" x="535.793" font-size="2.04688" font-family="Arial,Arial_MSFontService,sans-serif" fill-opacity="0" fill="#000000">…</text><g transform="translate(546 232)" filter="url(#fx5)" clip-path="url(#clip36)"><g><path fill-rule="evenodd" fill="#FF0000" d="M12.473 2.7576 14.6683 2.7576 14.6683 8.83572 17.2386 5.91385 19.9417 5.91385 17.1058 8.9451 20.1449 14.2107 17.7777 14.2107 15.6917 10.4842 14.6683 11.5545 14.6683 14.2107 12.473 14.2107ZM6.69955 2.71072C7.77768 2.71072 8.64226 3.05447 9.2933 3.74197 9.82976 4.30447 10.098 4.93989 10.098 5.64822 10.098 6.65343 9.54851 7.45551 8.44955 8.05447 9.1058 8.1951 9.63054 8.5102 10.0238 8.99978 10.417 9.48937 10.6136 10.0805 10.6136 10.7732 10.6136 11.7784 10.2464 12.6352 9.51205 13.3435 8.77768 14.0519 7.86362 14.406 6.76987 14.406 5.73341 14.406 4.87403 14.1079 4.19175 13.5115 3.50945 12.9151 3.11362 12.1352 3.00425 11.1717L5.12925 10.9138C5.19695 11.4555 5.37925 11.8696 5.67612 12.156 5.973 12.4425 6.33237 12.5857 6.75424 12.5857 7.20737 12.5857 7.58887 12.4138 7.89877 12.0701 8.20867 11.7263 8.36362 11.2628 8.36362 10.6795 8.36362 10.1274 8.21518 9.68989 7.9183 9.36697 7.62143 9.04405 7.25945 8.8826 6.83237 8.8826 6.55112 8.8826 6.21518 8.93728 5.82455 9.04666L6.06675 7.2576C6.6605 7.27322 7.11362 7.14432 7.42612 6.87088 7.73862 6.59744 7.89487 6.23416 7.89487 5.78103 7.89487 5.39562 7.78028 5.08833 7.55112 4.85916 7.32195 4.62999 7.01726 4.51541 6.63705 4.51541 6.26205 4.51541 5.94175 4.64562 5.67612 4.90603 5.4105 5.16645 5.24903 5.54666 5.19175 6.04666L3.1683 5.70291C3.30893 5.0102 3.52117 4.45681 3.80502 4.04275 4.08888 3.62869 4.48471 3.30317 4.99252 3.06619 5.50034 2.82921 6.06935 2.71072 6.69955 2.71072Z"/></g></g><path fill-rule="evenodd" fill="url(#fill37)" d="M557.879 234.163 560.074 234.163 560.074 240.241 562.644 237.32 565.348 237.32 562.512 240.351 565.551 245.616 563.183 245.616 561.098 241.89 560.074 242.96 560.074 245.616 557.879 245.616ZM552.105 234.116C553.183 234.116 554.048 234.46 554.699 235.148 555.236 235.71 555.504 236.346 555.504 237.054 555.504 238.059 554.954 238.861 553.855 239.46 554.512 239.601 555.036 239.916 555.43 240.406 555.823 240.895 556.019 241.486 556.019 242.179 556.019 243.184 555.652 244.041 554.918 244.749 554.183 245.458 553.269 245.812 552.176 245.812 551.139 245.812 550.28 245.514 549.598 244.917 548.915 244.321 548.519 243.541 548.41 242.577L550.535 242.32C550.603 242.861 550.785 243.275 551.082 243.562 551.379 243.848 551.738 243.991 552.16 243.991 552.613 243.991 552.995 243.82 553.305 243.476 553.614 243.132 553.769 242.669 553.769 242.085 553.769 241.533 553.621 241.096 553.324 240.773 553.027 240.45 552.665 240.288 552.238 240.288 551.957 240.288 551.621 240.343 551.23 240.452L551.473 238.663C552.066 238.679 552.519 238.55 552.832 238.277 553.144 238.003 553.301 237.64 553.301 237.187 553.301 236.801 553.186 236.494 552.957 236.265 552.728 236.036 552.423 235.921 552.043 235.921 551.668 235.921 551.348 236.051 551.082 236.312 550.816 236.572 550.655 236.952 550.598 237.452L548.574 237.109C548.715 236.416 548.927 235.863 549.211 235.449 549.495 235.034 549.891 234.709 550.398 234.472 550.906 234.235 551.475 234.116 552.105 234.116Z"/><text y="244.35" x="548.41" font-size="11.6953" font-family="Arial,Arial_MSFontService,sans-serif" fill-opacity="0" fill="#000000">3k</text><g transform="translate(564 237)" filter="url(#fx6)" clip-path="url(#clip38)"><g><path fill-rule="evenodd" fill="#FF0000" d="M12.2178 3.03103 14.1006 3.03103 14.1006 5.07791 12.2178 5.07791ZM7.63966 3.03103 9.51466 3.03103 9.51466 5.07791 7.63966 5.07791ZM3.05372 3.03103 4.93654 3.03103 4.93654 5.07791 3.05372 5.07791Z"/></g></g><path fill-rule="evenodd" fill="url(#fill39)" d="M575.624 239.437 577.506 239.437 577.506 241.484 575.624 241.484ZM571.045 239.437 572.92 239.437 572.92 241.484 571.045 241.484ZM566.459 239.437 568.342 239.437 568.342 241.484 566.459 241.484Z"/><text y="241.228" x="566.459" font-size="2.04688" font-family="Arial,Arial_MSFontService,sans-serif" fill-opacity="0" fill="#000000">…</text><path transform="matrix(1 0 0 -1 622.5 664.9)" d="M0.666667-1.4461e-06 0.666757 41.7333-0.666576 41.7333-0.666667 1.4461e-06ZM4.00009 40.4 0.000104987 48.4-3.99991 40.4Z"/><path transform="matrix(1 0 0 -1 600.5 667.922)" d="M0.666667-1.10358e-06 0.666761 56.7554-0.666573 56.7554-0.666667 1.10358e-06ZM4.00009 55.422 0.000104987 63.422-3.99991 55.4221Z"/><path fill-rule="evenodd" fill="#F6C6AD" stroke-miterlimit="8" stroke-width="2" stroke="#042433" d="M612 597.667C612 595.642 613.642 594 615.667 594L630.333 594C632.358 594 634 595.642 634 597.667L634 612.333C634 614.358 632.358 616 630.333 616L615.667 616C613.642 616 612 614.358 612 612.333Z"/><path fill-rule="evenodd" fill="#FBE3D6" stroke-miterlimit="8" stroke-width="2" stroke="#042433" d="M589 585.667C589 583.642 590.642 582 592.667 582L608.333 582C610.358 582 612 583.642 612 585.667L612 600.333C612 602.358 610.358 604 608.333 604L592.667 604C590.642 604 589 602.358 589 600.333Z"/><path fill-rule="evenodd" fill="#FFD966" stroke-miterlimit="8" stroke-width="2" stroke="#042433" d="M566 573.667C566 571.642 567.642 570 569.667 570L586.333 570C588.358 570 590 571.642 590 573.667L590 588.333C590 590.358 588.358 592 586.333 592L569.667 592C567.642 592 566 590.358 566 588.333Z"/><path transform="matrix(1 0 0 -1 578.5 652.753)" d="M0.666667-1.16163e-06 0.66676 53.5858-0.666573 53.5858-0.666667 1.16163e-06ZM4.00009 52.2525 0.000104987 60.2525-3.99991 52.2525Z"/><path transform="matrix(1 0 0 -1 694.5 667.922)" d="M0.666667-1.10358e-06 0.666761 56.7554-0.666573 56.7554-0.666667 1.10358e-06ZM4.00009 55.422 0.000104987 63.422-3.99991 55.4221Z"/><path transform="matrix(1 0 0 -1 716.5 664.9)" d="M0.666667-1.4461e-06 0.666757 41.7333-0.666576 41.7333-0.666667 1.4461e-06ZM4.00009 40.4 0.000104987 48.4-3.99991 40.4Z"/><path fill-rule="evenodd" fill="#F6C6AD" stroke-miterlimit="8" stroke-width="2" stroke="#042433" d="M705 597.667C705 595.642 706.642 594 708.667 594L724.333 594C726.358 594 728 595.642 728 597.667L728 612.333C728 614.358 726.358 616 724.333 616L708.667 616C706.642 616 705 614.358 705 612.333Z"/><path fill-rule="evenodd" fill="#FBE3D6" stroke-miterlimit="8" stroke-width="2" stroke="#042433" d="M683 585.667C683 583.642 684.642 582 686.667 582L701.333 582C703.358 582 705 583.642 705 585.667L705 600.333C705 602.358 703.358 604 701.333 604L686.667 604C684.642 604 683 602.358 683 600.333Z"/><path fill-rule="evenodd" fill="#FFD966" stroke-miterlimit="8" stroke-width="2" stroke="#042433" d="M660 574.5C660 572.567 661.567 571 663.5 571L680.5 571C682.433 571 684 572.567 684 574.5L684 588.5C684 590.433 682.433 592 680.5 592L663.5 592C661.567 592 660 590.433 660 588.5Z"/><path transform="matrix(1 0 0 -1 672.5 652.753)" d="M0.666667-1.16163e-06 0.66676 53.5858-0.666573 53.5858-0.666667 1.16163e-06ZM4.00009 52.2525 0.000104987 60.2525-3.99991 52.2525Z"/><path transform="matrix(1 0 0 -1 791.5 684.776)" d="M0.666667-7.50365e-07 0.666764 86.6097-0.666569 86.6097-0.666667 7.50365e-07ZM4.0001 85.2763 0.000104987 93.2763-3.9999 85.2763Z"/><path transform="matrix(1 0 0 -1 836.5 665.142)" d="M0.666667-1.40993e-06 0.666758 42.9749-0.666576 42.9749-0.666667 1.40993e-06ZM4.00009 41.6416 0.000104987 49.6416-3.99991 41.6416Z"/><path transform="matrix(1 0 0 -1 813.5 664.994)" d="M0.666617-0.00813054 1.33534 54.8198 0.00210379 54.836-0.666617 0.00813054ZM4.65216 53.4459 0.750026 61.4941-3.34724 53.5434Z"/><path fill-rule="evenodd" fill="#F6C6AD" stroke-miterlimit="8" stroke-width="2" stroke="#042433" d="M825 596.667C825 594.642 826.642 593 828.667 593L843.333 593C845.358 593 847 594.642 847 596.667L847 611.333C847 613.358 845.358 615 843.333 615L828.667 615C826.642 615 825 613.358 825 611.333Z"/><path fill-rule="evenodd" fill="#FBE3D6" stroke-miterlimit="8" stroke-width="2" stroke="#042433" d="M802 584.667C802 582.642 803.642 581 805.667 581L821.333 581C823.358 581 825 582.642 825 584.667L825 599.333C825 601.358 823.358 603 821.333 603L805.667 603C803.642 603 802 601.358 802 599.333Z"/><path fill-rule="evenodd" fill="#FFD966" stroke-miterlimit="8" stroke-width="2" stroke="#042433" d="M780 573.5C780 571.567 781.567 570 783.5 570L799.5 570C801.433 570 803 571.567 803 573.5L803 587.5C803 589.433 801.433 591 799.5 591L783.5 591C781.567 591 780 589.433 780 587.5Z"/><path fill-rule="evenodd" fill="#FFD966" stroke-miterlimit="8" stroke-width="2" stroke="#042433" d="M643 957.667C643 955.642 644.642 954 646.667 954L663.333 954C665.358 954 667 955.642 667 957.667L667 972.333C667 974.358 665.358 976 663.333 976L646.667 976C644.642 976 643 974.358 643 972.333Z"/><path fill-rule="evenodd" fill="#FBE3D6" stroke-miterlimit="8" stroke-width="2" stroke="#042433" d="M684 957.667C684 955.642 685.642 954 687.667 954L704.333 954C706.358 954 708 955.642 708 957.667L708 972.333C708 974.358 706.358 976 704.333 976L687.667 976C685.642 976 684 974.358 684 972.333Z"/><path fill-rule="evenodd" fill="#F6C6AD" stroke-miterlimit="8" stroke-width="2" stroke="#042433" d="M725 957.667C725 955.642 726.642 954 728.667 954L745.333 954C747.358 954 749 955.642 749 957.667L749 972.333C749 974.358 747.358 976 745.333 976L728.667 976C726.642 976 725 974.358 725 972.333Z"/><path fill-rule="evenodd" fill="#FFD966" stroke-miterlimit="8" stroke-width="2" stroke="#042433" d="M766 957.667C766 955.642 767.642 954 769.667 954L786.333 954C788.358 954 790 955.642 790 957.667L790 972.333C790 974.358 788.358 976 786.333 976L769.667 976C767.642 976 766 974.358 766 972.333Z"/><path fill-rule="evenodd" fill="#FBE3D6" stroke-miterlimit="8" stroke-width="2" stroke="#042433" d="M807 957.667C807 955.642 808.642 954 810.667 954L827.333 954C829.358 954 831 955.642 831 957.667L831 972.333C831 974.358 829.358 976 827.333 976L810.667 976C808.642 976 807 974.358 807 972.333Z"/><path fill-rule="evenodd" fill="#F6C6AD" stroke-miterlimit="8" stroke-width="2" stroke="#042433" d="M848 957.667C848 955.642 849.642 954 851.667 954L868.333 954C870.358 954 872 955.642 872 957.667L872 972.333C872 974.358 870.358 976 868.333 976L851.667 976C849.642 976 848 974.358 848 972.333Z"/><path fill-rule="evenodd" fill="#FFD966" stroke-miterlimit="8" stroke-width="2" stroke="#042433" d="M889 957.667C889 955.642 890.642 954 892.667 954L909.333 954C911.358 954 913 955.642 913 957.667L913 972.333C913 974.358 911.358 976 909.333 976L892.667 976C890.642 976 889 974.358 889 972.333Z"/><path fill-rule="evenodd" fill="#FBE3D6" stroke-miterlimit="8" stroke-width="2" stroke="#042433" d="M930 957.667C930 955.642 931.642 954 933.667 954L950.333 954C952.358 954 954 955.642 954 957.667L954 972.333C954 974.358 952.358 976 950.333 976L933.667 976C931.642 976 930 974.358 930 972.333Z"/><path fill-rule="evenodd" fill="#F6C6AD" stroke-miterlimit="8" stroke-width="2" stroke="#042433" d="M972 957.667C972 955.642 973.642 954 975.667 954L991.333 954C993.358 954 995 955.642 995 957.667L995 972.333C995 974.358 993.358 976 991.333 976L975.667 976C973.642 976 972 974.358 972 972.333Z"/><g transform="translate(604 688)" filter="url(#fx7)"><g><path fill-rule="evenodd" fill="#129990" stroke-miterlimit="8" stroke-width="2" stroke="#00B050" d="M7.82843 15.9955C7.82843 11.4849 11.4849 7.82843 15.9955 7.82843L408.661 7.82843C413.172 7.82843 416.828 11.4849 416.828 15.9955L416.828 48.6614C416.828 53.1719 413.172 56.8284 408.661 56.8284L15.9955 56.8284C11.4849 56.8284 7.82843 53.1719 7.82843 48.6614Z"/></g></g><path fill-rule="evenodd" fill="#129990" stroke-miterlimit="8" stroke-width="2" stroke="#00B050" d="M609 701.167C609 696.656 612.656 693 617.167 693L1009.83 693C1014.34 693 1018 696.656 1018 701.167L1018 733.833C1018 738.344 1014.34 742 1009.83 742L617.167 742C612.656 742 609 738.344 609 733.833Z"/><g transform="translate(582 671)" filter="url(#fx8)"><g><path fill-rule="evenodd" fill="#129990" stroke-miterlimit="8" stroke-width="2" stroke="#00B050" d="M7.82843 15.9952C7.82843 11.4848 11.4848 7.82843 15.9951 7.82843L407.662 7.82843C412.172 7.82843 415.828 11.4848 415.828 15.9952L415.828 48.6617C415.828 53.1721 412.172 56.8284 407.662 56.8284L15.9951 56.8284C11.4848 56.8284 7.82843 53.1721 7.82843 48.6617Z"/></g></g><path fill-rule="evenodd" fill="#129990" stroke-miterlimit="8" stroke-width="2" stroke="#00B050" d="M587 684.167C587 679.656 590.656 676 595.167 676L986.833 676C991.344 676 995 679.656 995 684.167L995 716.833C995 721.344 991.344 725 986.833 725L595.167 725C590.656 725 587 721.344 587 716.833Z"/><g transform="translate(560 649)" filter="url(#fx9)"><g><path fill-rule="evenodd" fill="#129990" stroke-miterlimit="8" stroke-width="2" stroke="#00B050" d="M7.82843 15.9955C7.82843 11.4849 11.4849 7.82843 15.9955 7.82843L408.661 7.82843C413.172 7.82843 416.828 11.4849 416.828 15.9955L416.828 48.6614C416.828 53.1719 413.172 56.8284 408.661 56.8284L15.9955 56.8284C11.4849 56.8284 7.82843 53.1719 7.82843 48.6614Z"/></g></g><path fill-rule="evenodd" fill="#129990" stroke-miterlimit="8" stroke-width="2" stroke="#00B050" d="M565 662.167C565 657.656 568.656 654 573.167 654L965.833 654C970.344 654 974 657.656 974 662.167L974 694.833C974 699.344 970.344 703 965.833 703L573.167 703C568.656 703 565 699.344 565 694.833Z"/><text transform="translate(794.436 683)" font-size="24" font-weight="400" font-family="Arial,Arial_MSFontService,sans-serif" fill="#FFFFFF">Speech Head 1</text><text transform="translate(977.858 704)" font-size="24" font-weight="400" font-family="Arial,Arial_MSFontService,sans-serif" fill="#FFFFFF">2</text><text transform="translate(999.686 721)" font-size="24" font-weight="400" font-family="Arial,Arial_MSFontService,sans-serif" fill="#FFFFFF">3</text><g transform="translate(627 879)" filter="url(#fx10)"><g><path fill-rule="evenodd" fill="#FBE3D6" d="M7 52.3333 18.25 7.33331 118.75 7.33331 130 52.3333Z"/></g></g><g transform="translate(646 885)" filter="url(#fx11)" clip-path="url(#clip40)"><g><path transform="translate(19.4639 32)" d="M1.64062 0 1.64062-14.3164 11.2988-14.3164 11.2988-12.627 3.53516-12.627 3.53516-8.19336 10.2539-8.19336 10.2539-6.50391 3.53516-6.50391 3.53516 0ZM20.2819 0 20.2819-1.52344C19.4746-0.351562 18.3776 0.234375 16.9909 0.234375 16.3789 0.234375 15.8076 0.117187 15.277-0.117188 14.7464-0.351562 14.3525-0.646159 14.0954-1.00098 13.8382-1.35579 13.6576-1.79036 13.5534-2.30469 13.4818-2.64974 13.446-3.19661 13.446-3.94531L13.446-10.3711 15.2038-10.3711 15.2038-4.61914C15.2038-3.70117 15.2396-3.08268 15.3112-2.76367 15.4219-2.30143 15.6562-1.93848 16.0143-1.6748 16.3724-1.41113 16.8151-1.2793 17.3424-1.2793 17.8698-1.2793 18.3646-1.41439 18.8268-1.68457 19.2891-1.95475 19.6162-2.32259 19.8083-2.78809 20.0003-3.25358 20.0964-3.92904 20.0964-4.81445L20.0964-10.3711 21.8542-10.3711 21.8542 0ZM23.9486-3.0957 25.6868-3.36914C25.7845-2.67253 26.0563-2.13867 26.5023-1.76758 26.9482-1.39648 27.5716-1.21094 28.3724-1.21094 29.1797-1.21094 29.7786-1.37533 30.1693-1.7041 30.5599-2.03288 30.7552-2.41862 30.7552-2.86133 30.7552-3.25846 30.5827-3.57096 30.2376-3.79883 29.9967-3.95508 29.3978-4.15365 28.4408-4.39453 27.1517-4.72005 26.2581-5.00163 25.7601-5.23926 25.262-5.47689 24.8844-5.80566 24.6273-6.22559 24.3701-6.64551 24.2415-7.10937 24.2415-7.61719 24.2415-8.07943 24.3473-8.50749 24.5589-8.90137 24.7705-9.29525 25.0586-9.6224 25.4232-9.88281 25.6966-10.0846 26.0693-10.2555 26.5413-10.3955 27.0133-10.5355 27.5195-10.6055 28.0599-10.6055 28.8737-10.6055 29.5882-10.4883 30.2035-10.2539 30.8187-10.0195 31.2728-9.70215 31.5658-9.30176 31.8587-8.90137 32.0605-8.36588 32.1712-7.69531L30.4525-7.46094C30.3743-7.99479 30.1481-8.41146 29.7738-8.71094 29.3994-9.01042 28.8704-9.16016 28.1868-9.16016 27.3796-9.16016 26.8034-9.02669 26.4583-8.75977 26.1133-8.49284 25.9408-8.18034 25.9408-7.82227 25.9408-7.5944 26.0124-7.38932 26.1556-7.20703 26.2988-7.01823 26.5234-6.86198 26.8294-6.73828 27.0052-6.67318 27.5228-6.52344 28.3822-6.28906 29.6257-5.95703 30.4932-5.68522 30.9847-5.47363 31.4762-5.26204 31.862-4.95443 32.1419-4.55078 32.4219-4.14714 32.5619-3.64583 32.5619-3.04688 32.5619-2.46094 32.391-1.90918 32.0492-1.3916 31.7074-0.874023 31.2142-0.473633 30.5697-0.19043 29.9251 0.0927734 29.196 0.234375 28.3822 0.234375 27.0345 0.234375 26.0075-0.0455729 25.3011-0.605469 24.5947-1.16536 24.1439-1.99544 23.9486-3.0957ZM34.6615-12.2949 34.6615-14.3164 36.4193-14.3164 36.4193-12.2949ZM34.6615 0 34.6615-10.3711 36.4193-10.3711 36.4193 0ZM38.4974-5.18555C38.4974-7.10612 39.0312-8.52865 40.099-9.45312 40.9909-10.2214 42.0781-10.6055 43.3607-10.6055 44.7865-10.6055 45.9518-10.1383 46.8568-9.2041 47.7617-8.26986 48.2142-6.97917 48.2142-5.33203 48.2142-3.9974 48.014-2.94759 47.6136-2.18262 47.2132-1.41764 46.6305-0.823568 45.8656-0.400391 45.1006 0.0227864 44.2656 0.234375 43.3607 0.234375 41.9089 0.234375 40.7354-0.23112 39.8402-1.16211 38.945-2.0931 38.4974-3.43424 38.4974-5.18555ZM40.304-5.18555C40.304-3.85742 40.5938-2.86296 41.1732-2.20215 41.7526-1.54134 42.4818-1.21094 43.3607-1.21094 44.2331-1.21094 44.959-1.54297 45.5384-2.20703 46.1178-2.87109 46.4076-3.88346 46.4076-5.24414 46.4076-6.52669 46.1162-7.49837 45.5335-8.15918 44.9508-8.81999 44.2266-9.15039 43.3607-9.15039 42.4818-9.15039 41.7526-8.82161 41.1732-8.16406 40.5938-7.50651 40.304-6.51367 40.304-5.18555ZM50.3184 0 50.3184-10.3711 51.9004-10.3711 51.9004-8.89648C52.6621-10.0358 53.7624-10.6055 55.2012-10.6055 55.8262-10.6055 56.4007-10.4932 56.9248-10.2686 57.4489-10.0439 57.8411-9.74935 58.1016-9.38477 58.362-9.02018 58.5443-8.58724 58.6484-8.08594 58.7135-7.76042 58.7461-7.19075 58.7461-6.37695L58.7461 0 56.9883 0 56.9883-6.30859C56.9883-7.02474 56.9199-7.56022 56.7832-7.91504 56.6465-8.26986 56.404-8.55306 56.0557-8.76465 55.7074-8.97624 55.2988-9.08203 54.8301-9.08203 54.0814-9.08203 53.4352-8.8444 52.8916-8.36914 52.348-7.89388 52.0762-6.99219 52.0762-5.66406L52.0762 0Z"/></g></g><path fill-rule="evenodd" fill="#FBE3D6" d="M634 926 645.25 881 745.75 881 757 926Z"/><text transform="translate(665.464 912)" font-size="20" font-weight="400" font-family="Arial,Arial_MSFontService,sans-serif">Fusion</text><g transform="translate(752 879)" filter="url(#fx12)"><g><path fill-rule="evenodd" fill="#FBE3D6" d="M7 52.3333 18.25 7.33331 119.75 7.33331 131 52.3333Z"/></g></g><g transform="translate(772 885)" filter="url(#fx13)" clip-path="url(#clip41)"><g><path transform="translate(18.9229 32)" d="M1.64062 0 1.64062-14.3164 11.2988-14.3164 11.2988-12.627 3.53516-12.627 3.53516-8.19336 10.2539-8.19336 10.2539-6.50391 3.53516-6.50391 3.53516 0ZM20.2819 0 20.2819-1.52344C19.4746-0.351562 18.3776 0.234375 16.9909 0.234375 16.3789 0.234375 15.8076 0.117187 15.277-0.117188 14.7464-0.351562 14.3525-0.646159 14.0954-1.00098 13.8382-1.35579 13.6576-1.79036 13.5534-2.30469 13.4818-2.64974 13.446-3.19661 13.446-3.94531L13.446-10.3711 15.2038-10.3711 15.2038-4.61914C15.2038-3.70117 15.2396-3.08268 15.3112-2.76367 15.4219-2.30143 15.6562-1.93848 16.0143-1.6748 16.3724-1.41113 16.8151-1.2793 17.3424-1.2793 17.8698-1.2793 18.3646-1.41439 18.8268-1.68457 19.2891-1.95475 19.6162-2.32259 19.8083-2.78809 20.0003-3.25358 20.0964-3.92904 20.0964-4.81445L20.0964-10.3711 21.8542-10.3711 21.8542 0ZM23.9486-3.0957 25.6868-3.36914C25.7845-2.67253 26.0563-2.13867 26.5023-1.76758 26.9482-1.39648 27.5716-1.21094 28.3724-1.21094 29.1797-1.21094 29.7786-1.37533 30.1693-1.7041 30.5599-2.03288 30.7552-2.41862 30.7552-2.86133 30.7552-3.25846 30.5827-3.57096 30.2376-3.79883 29.9967-3.95508 29.3978-4.15365 28.4408-4.39453 27.1517-4.72005 26.2581-5.00163 25.7601-5.23926 25.262-5.47689 24.8844-5.80566 24.6273-6.22559 24.3701-6.64551 24.2415-7.10937 24.2415-7.61719 24.2415-8.07943 24.3473-8.50749 24.5589-8.90137 24.7705-9.29525 25.0586-9.6224 25.4232-9.88281 25.6966-10.0846 26.0693-10.2555 26.5413-10.3955 27.0133-10.5355 27.5195-10.6055 28.0599-10.6055 28.8737-10.6055 29.5882-10.4883 30.2035-10.2539 30.8187-10.0195 31.2728-9.70215 31.5658-9.30176 31.8587-8.90137 32.0605-8.36588 32.1712-7.69531L30.4525-7.46094C30.3743-7.99479 30.1481-8.41146 29.7738-8.71094 29.3994-9.01042 28.8704-9.16016 28.1868-9.16016 27.3796-9.16016 26.8034-9.02669 26.4583-8.75977 26.1133-8.49284 25.9408-8.18034 25.9408-7.82227 25.9408-7.5944 26.0124-7.38932 26.1556-7.20703 26.2988-7.01823 26.5234-6.86198 26.8294-6.73828 27.0052-6.67318 27.5228-6.52344 28.3822-6.28906 29.6257-5.95703 30.4932-5.68522 30.9847-5.47363 31.4762-5.26204 31.862-4.95443 32.1419-4.55078 32.4219-4.14714 32.5619-3.64583 32.5619-3.04688 32.5619-2.46094 32.391-1.90918 32.0492-1.3916 31.7074-0.874023 31.2142-0.473633 30.5697-0.19043 29.9251 0.0927734 29.196 0.234375 28.3822 0.234375 27.0345 0.234375 26.0075-0.0455729 25.3011-0.605469 24.5947-1.16536 24.1439-1.99544 23.9486-3.0957ZM34.6615-12.2949 34.6615-14.3164 36.4193-14.3164 36.4193-12.2949ZM34.6615 0 34.6615-10.3711 36.4193-10.3711 36.4193 0ZM38.4974-5.18555C38.4974-7.10612 39.0312-8.52865 40.099-9.45312 40.9909-10.2214 42.0781-10.6055 43.3607-10.6055 44.7865-10.6055 45.9518-10.1383 46.8568-9.2041 47.7617-8.26986 48.2142-6.97917 48.2142-5.33203 48.2142-3.9974 48.014-2.94759 47.6136-2.18262 47.2132-1.41764 46.6305-0.823568 45.8656-0.400391 45.1006 0.0227864 44.2656 0.234375 43.3607 0.234375 41.9089 0.234375 40.7354-0.23112 39.8402-1.16211 38.945-2.0931 38.4974-3.43424 38.4974-5.18555ZM40.304-5.18555C40.304-3.85742 40.5938-2.86296 41.1732-2.20215 41.7526-1.54134 42.4818-1.21094 43.3607-1.21094 44.2331-1.21094 44.959-1.54297 45.5384-2.20703 46.1178-2.87109 46.4076-3.88346 46.4076-5.24414 46.4076-6.52669 46.1162-7.49837 45.5335-8.15918 44.9508-8.81999 44.2266-9.15039 43.3607-9.15039 42.4818-9.15039 41.7526-8.82161 41.1732-8.16406 40.5938-7.50651 40.304-6.51367 40.304-5.18555ZM50.3184 0 50.3184-10.3711 51.9004-10.3711 51.9004-8.89648C52.6621-10.0358 53.7624-10.6055 55.2012-10.6055 55.8262-10.6055 56.4007-10.4932 56.9248-10.2686 57.4489-10.0439 57.8411-9.74935 58.1016-9.38477 58.362-9.02018 58.5443-8.58724 58.6484-8.08594 58.7135-7.76042 58.7461-7.19075 58.7461-6.37695L58.7461 0 56.9883 0 56.9883-6.30859C56.9883-7.02474 56.9199-7.56022 56.7832-7.91504 56.6465-8.26986 56.404-8.55306 56.0557-8.76465 55.7074-8.97624 55.2988-9.08203 54.8301-9.08203 54.0814-9.08203 53.4352-8.8444 52.8916-8.36914 52.348-7.89388 52.0762-6.99219 52.0762-5.66406L52.0762 0Z"/></g></g><path fill-rule="evenodd" fill="#FBE3D6" d="M759 926 770.25 881 871.75 881 883 926Z"/><text transform="translate(790.923 912)" font-size="20" font-weight="400" font-family="Arial,Arial_MSFontService,sans-serif">Fusion</text><g transform="translate(880 879)" filter="url(#fx14)"><g><path fill-rule="evenodd" fill="#FBE3D6" d="M7 52.3333 18.25 7.33331 118.75 7.33331 130 52.3333Z"/></g></g><g transform="translate(899 885)" filter="url(#fx15)" clip-path="url(#clip42)"><g><path transform="translate(19.1814 32)" d="M1.64062 0 1.64062-14.3164 11.2988-14.3164 11.2988-12.627 3.53516-12.627 3.53516-8.19336 10.2539-8.19336 10.2539-6.50391 3.53516-6.50391 3.53516 0ZM20.2819 0 20.2819-1.52344C19.4746-0.351562 18.3776 0.234375 16.9909 0.234375 16.3789 0.234375 15.8076 0.117187 15.277-0.117188 14.7464-0.351562 14.3525-0.646159 14.0954-1.00098 13.8382-1.35579 13.6576-1.79036 13.5534-2.30469 13.4818-2.64974 13.446-3.19661 13.446-3.94531L13.446-10.3711 15.2038-10.3711 15.2038-4.61914C15.2038-3.70117 15.2396-3.08268 15.3112-2.76367 15.4219-2.30143 15.6562-1.93848 16.0143-1.6748 16.3724-1.41113 16.8151-1.2793 17.3424-1.2793 17.8698-1.2793 18.3646-1.41439 18.8268-1.68457 19.2891-1.95475 19.6162-2.32259 19.8083-2.78809 20.0003-3.25358 20.0964-3.92904 20.0964-4.81445L20.0964-10.3711 21.8542-10.3711 21.8542 0ZM23.9486-3.0957 25.6868-3.36914C25.7845-2.67253 26.0563-2.13867 26.5023-1.76758 26.9482-1.39648 27.5716-1.21094 28.3724-1.21094 29.1797-1.21094 29.7786-1.37533 30.1693-1.7041 30.5599-2.03288 30.7552-2.41862 30.7552-2.86133 30.7552-3.25846 30.5827-3.57096 30.2376-3.79883 29.9967-3.95508 29.3978-4.15365 28.4408-4.39453 27.1517-4.72005 26.2581-5.00163 25.7601-5.23926 25.262-5.47689 24.8844-5.80566 24.6273-6.22559 24.3701-6.64551 24.2415-7.10937 24.2415-7.61719 24.2415-8.07943 24.3473-8.50749 24.5589-8.90137 24.7705-9.29525 25.0586-9.6224 25.4232-9.88281 25.6966-10.0846 26.0693-10.2555 26.5413-10.3955 27.0133-10.5355 27.5195-10.6055 28.0599-10.6055 28.8737-10.6055 29.5882-10.4883 30.2035-10.2539 30.8187-10.0195 31.2728-9.70215 31.5658-9.30176 31.8587-8.90137 32.0605-8.36588 32.1712-7.69531L30.4525-7.46094C30.3743-7.99479 30.1481-8.41146 29.7738-8.71094 29.3994-9.01042 28.8704-9.16016 28.1868-9.16016 27.3796-9.16016 26.8034-9.02669 26.4583-8.75977 26.1133-8.49284 25.9408-8.18034 25.9408-7.82227 25.9408-7.5944 26.0124-7.38932 26.1556-7.20703 26.2988-7.01823 26.5234-6.86198 26.8294-6.73828 27.0052-6.67318 27.5228-6.52344 28.3822-6.28906 29.6257-5.95703 30.4932-5.68522 30.9847-5.47363 31.4762-5.26204 31.862-4.95443 32.1419-4.55078 32.4219-4.14714 32.5619-3.64583 32.5619-3.04688 32.5619-2.46094 32.391-1.90918 32.0492-1.3916 31.7074-0.874023 31.2142-0.473633 30.5697-0.19043 29.9251 0.0927734 29.196 0.234375 28.3822 0.234375 27.0345 0.234375 26.0075-0.0455729 25.3011-0.605469 24.5947-1.16536 24.1439-1.99544 23.9486-3.0957ZM34.6615-12.2949 34.6615-14.3164 36.4193-14.3164 36.4193-12.2949ZM34.6615 0 34.6615-10.3711 36.4193-10.3711 36.4193 0ZM38.4974-5.18555C38.4974-7.10612 39.0312-8.52865 40.099-9.45312 40.9909-10.2214 42.0781-10.6055 43.3607-10.6055 44.7865-10.6055 45.9518-10.1383 46.8568-9.2041 47.7617-8.26986 48.2142-6.97917 48.2142-5.33203 48.2142-3.9974 48.014-2.94759 47.6136-2.18262 47.2132-1.41764 46.6305-0.823568 45.8656-0.400391 45.1006 0.0227864 44.2656 0.234375 43.3607 0.234375 41.9089 0.234375 40.7354-0.23112 39.8402-1.16211 38.945-2.0931 38.4974-3.43424 38.4974-5.18555ZM40.304-5.18555C40.304-3.85742 40.5938-2.86296 41.1732-2.20215 41.7526-1.54134 42.4818-1.21094 43.3607-1.21094 44.2331-1.21094 44.959-1.54297 45.5384-2.20703 46.1178-2.87109 46.4076-3.88346 46.4076-5.24414 46.4076-6.52669 46.1162-7.49837 45.5335-8.15918 44.9508-8.81999 44.2266-9.15039 43.3607-9.15039 42.4818-9.15039 41.7526-8.82161 41.1732-8.16406 40.5938-7.50651 40.304-6.51367 40.304-5.18555ZM50.3184 0 50.3184-10.3711 51.9004-10.3711 51.9004-8.89648C52.6621-10.0358 53.7624-10.6055 55.2012-10.6055 55.8262-10.6055 56.4007-10.4932 56.9248-10.2686 57.4489-10.0439 57.8411-9.74935 58.1016-9.38477 58.362-9.02018 58.5443-8.58724 58.6484-8.08594 58.7135-7.76042 58.7461-7.19075 58.7461-6.37695L58.7461 0 56.9883 0 56.9883-6.30859C56.9883-7.02474 56.9199-7.56022 56.7832-7.91504 56.6465-8.26986 56.404-8.55306 56.0557-8.76465 55.7074-8.97624 55.2988-9.08203 54.8301-9.08203 54.0814-9.08203 53.4352-8.8444 52.8916-8.36914 52.348-7.89388 52.0762-6.99219 52.0762-5.66406L52.0762 0Z"/></g></g><path fill-rule="evenodd" fill="#FBE3D6" d="M887 926 898.25 881 998.75 881 1010 926Z"/><text transform="translate(918.181 912)" font-size="20" font-weight="400" font-family="Arial,Arial_MSFontService,sans-serif">Fusion</text><rect fill="#A6CAEC" stroke-miterlimit="8" stroke-width="2" stroke="#042433" height="81" width="733" y="780" x="285"/><text transform="translate(473.28 832)" font-size="32" font-weight="400" font-family="Arial,Arial_MSFontService,sans-serif">Speech Language Model</text><path d="M654.833 954.917 654.833 932.167 656.167 932.167 656.167 954.917ZM651.5 933.5 655.5 925.5 659.5 933.5Z"/><path d="M695.833 954.917 695.833 932.167 697.167 932.167 697.167 954.917ZM692.5 933.5 696.5 925.5 700.5 933.5Z"/><path d="M734.833 954.917 734.833 932.167 736.167 932.167 736.167 954.917ZM731.5 933.5 735.5 925.5 739.5 933.5Z"/><path d="M777.833 954.917 777.833 932.167 779.167 932.167 779.167 954.917ZM774.5 933.5 778.5 925.5 782.5 933.5Z"/><path d="M819.833 954.917 819.833 932.167 821.167 932.167 821.167 954.917ZM816.5 933.5 820.5 925.5 824.5 933.5Z"/><path d="M859.833 954.917 859.833 932.167 861.167 932.167 861.167 954.917ZM856.5 933.5 860.5 925.5 864.5 933.5Z"/><path d="M901.833 954.917 901.833 932.167 903.167 932.167 903.167 954.917ZM898.5 933.5 902.5 925.5 906.5 933.5Z"/><path d="M941.833 954.917 941.833 932.167 943.167 932.167 943.167 954.917ZM938.5 933.5 942.5 925.5 946.5 933.5Z"/><path d="M982.833 954.917 982.833 932.167 984.167 932.167 984.167 954.917ZM979.5 933.5 983.5 925.5 987.5 933.5Z"/><path transform="matrix(1 0 0 -1 696.5 882.139)" d="M0.666667-3.39127e-06 0.666738 13.972-0.666596 13.972-0.666667 3.39127e-06ZM4.00006 12.6386 0.000104987 20.6386-3.99994 12.6387Z"/><path transform="matrix(1 0 0 -1 819.5 881.653)" d="M0.666667-3.47302e-06 0.666737 13.4862-0.666596 13.4862-0.666667 3.47302e-06ZM4.00006 12.1528 0.000104987 20.1529-3.99994 12.1529Z"/><path transform="matrix(1 0 0 -1 942.5 882.139)" d="M0.666667-3.39127e-06 0.666738 13.972-0.666596 13.972-0.666667 3.39127e-06ZM4.00006 12.6386 0.000104987 20.6386-3.99994 12.6387Z"/><g clip-path="url(#clip43)"><g transform="translate(275 652)" filter="url(#fx16)"><g><path fill-rule="evenodd" fill="#F2F2F2" stroke-miterlimit="8" stroke-width="2" stroke="#747474" d="M8 16.5001C8 11.9897 11.6564 8.33331 16.1668 8.33331L265.833 8.33331C270.344 8.33331 274 11.9897 274 16.5001L274 49.1665C274 53.6769 270.344 57.3333 265.833 57.3333L16.1668 57.3333C11.6564 57.3333 8 53.6769 8 49.1665Z"/></g></g></g><path fill-rule="evenodd" fill="#F2F2F2" stroke-miterlimit="8" stroke-width="2" stroke="#747474" d="M283 663.167C283 658.656 286.656 655 291.167 655L540.833 655C545.344 655 549 658.656 549 663.167L549 695.833C549 700.344 545.344 704 540.833 704L291.167 704C286.656 704 283 700.344 283 695.833Z"/><text transform="translate(432.804 687)" font-size="24" font-weight="400" font-family="Arial,Arial_MSFontService,sans-serif">Text Head</text><path fill-rule="evenodd" fill="none" stroke-miterlimit="8" stroke-width="1.33333" stroke="#000000" d="M918.5 767.5 963.833 767.5"/><path transform="matrix(1 0 0 -1 940.5 781.838)" d="M0.666667-1.2648e-06 0.666759 48.671-0.666574 48.671-0.666667 1.2648e-06ZM4.00009 47.3376 0.000104987 55.3376-3.99991 47.3376Z"/><path transform="matrix(1 0 0 -1 918.5 767.719)" d="M0.666667-1.10712e-06 0.666761 56.5526-0.666573 56.5526-0.666667 1.10712e-06ZM4.00009 55.2192 0.000104987 63.2192-3.99991 55.2192Z"/><path transform="matrix(1 0 0 -1 963.5 767.801)" d="M0.666667-2.66113e-06 0.666745 19.6346-0.666588 19.6346-0.666667 2.66113e-06ZM4.00007 18.3013 0.000104987 26.3013-3.99993 18.3013Z"/><path fill-rule="evenodd" fill="none" stroke-miterlimit="8" stroke-width="1.33333" stroke="#042433" d="M586.5 958.333C586.5 956.216 588.216 954.5 590.333 954.5L605.667 954.5C607.784 954.5 609.5 956.216 609.5 958.333L609.5 974.667C609.5 976.784 607.784 978.5 605.667 978.5L590.333 978.5C588.216 978.5 586.5 976.784 586.5 974.667Z"/><text transform="translate(592.256 972)" font-size="16" font-weight="400" font-family="Arial,Arial_MSFontService,sans-serif">S</text><path transform="matrix(1 0 0 -1 597.5 953.739)" d="M0.666667-7.67117e-07 0.666764 84.5727-0.666569 84.5727-0.666667 7.67117e-07ZM4.0001 83.2394 0.000104987 91.2394-3.9999 83.2394Z"/><path fill-rule="evenodd" fill="#F6C6AD" stroke-miterlimit="8" stroke-width="2" stroke="#F2AA84" d="M561 994.167C561 989.656 564.656 986 569.166 986L986.834 986C991.344 986 995 989.656 995 994.167L995 1026.83C995 1031.34 991.344 1035 986.834 1035L569.166 1035C564.656 1035 561 1031.34 561 1026.83Z"/><text transform="translate(683.049 1019)" font-size="24" font-weight="400" font-family="Arial,Arial_MSFontService,sans-serif">Speech Tokenizer</text><path fill-rule="evenodd" fill="none" stroke-miterlimit="8" stroke-width="1.33333" stroke="#000000" d="M791.5 767.5 836.833 767.5"/><path transform="matrix(1 0 0 -1 813.5 781.838)" d="M0.666667-1.2648e-06 0.666759 48.671-0.666574 48.671-0.666667 1.2648e-06ZM4.00009 47.3376 0.000104987 55.3376-3.99991 47.3376Z"/><path transform="matrix(1 0 0 -1 791.5 767.719)" d="M0.666667-1.10712e-06 0.666761 56.5526-0.666573 56.5526-0.666667 1.10712e-06ZM4.00009 55.2192 0.000104987 63.2192-3.99991 55.2192Z"/><path transform="matrix(1 0 0 -1 836.5 766.801)" d="M0.666667-2.66113e-06 0.666745 19.6346-0.666588 19.6346-0.666667 2.66113e-06ZM4.00007 18.3013 0.000104987 26.3013-3.99993 18.3013Z"/><path fill-rule="evenodd" fill="none" stroke-miterlimit="8" stroke-width="1.33333" stroke="#000000" d="M570.5 765.5 615.833 765.5"/><path transform="matrix(1 0 0 -1 592.5 779.838)" d="M0.666667-1.2648e-06 0.666759 48.671-0.666574 48.671-0.666667 1.2648e-06ZM4.00009 47.3376 0.000104987 55.3376-3.99991 47.3376Z"/><path transform="matrix(1 0 0 -1 570.5 765.719)" d="M0.666667-1.10712e-06 0.666761 56.5526-0.666573 56.5526-0.666667 1.10712e-06ZM4.00009 55.2192 0.000104987 63.2192-3.99991 55.2192Z"/><path transform="matrix(1 0 0 -1 615.5 765.801)" d="M0.666667-2.66113e-06 0.666745 19.6346-0.666588 19.6346-0.666667 2.66113e-06ZM4.00007 18.3013 0.000104987 26.3013-3.99993 18.3013Z"/><path transform="matrix(1 0 0 -1 964.5 653.74)" d="M0.666667-1.87947e-06 0.666753 30.5731-0.66658 30.5731-0.666667 1.87947e-06ZM4.00008 29.2398 0.000104987 37.2398-3.99992 29.2398Z"/><path transform="matrix(1 0 0 -1 920.5 652.753)" d="M0.666667-1.16163e-06 0.66676 53.5858-0.666573 53.5858-0.666667 1.16163e-06ZM4.00009 52.2525 0.000104987 60.2525-3.99991 52.2525Z"/><path transform="matrix(1 0 0 -1 942.5 652.9)" d="M0.666667-1.4461e-06 0.666757 41.7333-0.666576 41.7333-0.666667 1.4461e-06ZM4.00009 40.4 0.000104987 48.4-3.99991 40.4Z"/><path fill-rule="evenodd" fill="none" stroke-miterlimit="8" stroke-width="1.33333" stroke="#042433" d="M953.5 597.333C953.5 595.216 955.216 593.5 957.333 593.5L972.667 593.5C974.784 593.5 976.5 595.216 976.5 597.333L976.5 614.667C976.5 616.784 974.784 618.5 972.667 618.5L957.333 618.5C955.216 618.5 953.5 616.784 953.5 614.667Z"/><text transform="translate(958.885 612)" font-size="16" font-weight="400" font-family="Arial,Arial_MSFontService,sans-serif">E</text><path fill-rule="evenodd" fill="none" stroke-miterlimit="8" stroke-width="1.33333" stroke="#042433" d="M908.5 572.167C908.5 570.142 910.142 568.5 912.167 568.5L926.833 568.5C928.858 568.5 930.5 570.142 930.5 572.167L930.5 589.833C930.5 591.858 928.858 593.5 926.833 593.5L912.167 593.5C910.142 593.5 908.5 591.858 908.5 589.833Z"/><text transform="translate(913.589 587)" font-size="16" font-weight="400" font-family="Arial,Arial_MSFontService,sans-serif">E</text><path fill-rule="evenodd" fill="none" stroke-miterlimit="8" stroke-width="1.33333" stroke="#042433" d="M930.5 584.333C930.5 582.216 932.216 580.5 934.333 580.5L949.667 580.5C951.784 580.5 953.5 582.216 953.5 584.333L953.5 601.667C953.5 603.784 951.784 605.5 949.667 605.5L934.333 605.5C932.216 605.5 930.5 603.784 930.5 601.667Z"/><text transform="translate(936.237 599)" font-size="16" font-weight="400" font-family="Arial,Arial_MSFontService,sans-serif">E</text><path fill-rule="evenodd" fill="#D1D1D1" stroke-miterlimit="8" stroke-width="2" stroke="#042433" d="M409 957.667C409 955.642 410.642 954 412.667 954L427.333 954C429.358 954 431 955.642 431 957.667L431 974.333C431 976.358 429.358 978 427.333 978L412.667 978C410.642 978 409 976.358 409 974.333Z"/><path fill-rule="evenodd" fill="#D1D1D1" stroke-miterlimit="8" stroke-width="2" stroke="#042433" d="M458 957.833C458 955.716 459.716 954 461.833 954L477.167 954C479.284 954 481 955.716 481 957.833L481 974.167C481 976.284 479.284 978 477.167 978L461.833 978C459.716 978 458 976.284 458 974.167Z"/><path fill-rule="evenodd" fill="#D1D1D1" stroke-miterlimit="8" stroke-width="2" stroke="#042433" d="M357 957.833C357 955.716 358.716 954 360.833 954L376.167 954C378.284 954 380 955.716 380 957.833L380 974.167C380 976.284 378.284 978 376.167 978L360.833 978C358.716 978 357 976.284 357 974.167Z"/><path fill-rule="evenodd" fill="none" stroke-miterlimit="8" stroke-width="1.33333" stroke="#042433" d="M309.5 958.167C309.5 956.142 311.142 954.5 313.167 954.5L327.833 954.5C329.858 954.5 331.5 956.142 331.5 958.167L331.5 975.833C331.5 977.858 329.858 979.5 327.833 979.5L313.167 979.5C311.142 979.5 309.5 977.858 309.5 975.833Z"/><text transform="translate(315.038 973)" font-size="16" font-weight="400" font-family="Arial,Arial_MSFontService,sans-serif">T</text><path transform="matrix(1 0 0 -1 369.5 954.563)" d="M0.666667-7.60252e-07 0.666764 85.3966-0.666569 85.3966-0.666667 7.60252e-07ZM4.0001 84.0632 0.000104987 92.0632-3.9999 84.0632Z"/><path transform="matrix(1 0 0 -1 420.5 954.005)" d="M0.666667-7.64888e-07 0.666764 84.8386-0.666569 84.8386-0.666667 7.64888e-07ZM4.0001 83.5052 0.000104987 91.5052-3.9999 83.5052Z"/><path transform="matrix(1 0 0 -1 469.5 954.678)" d="M0.666667-7.59303e-07 0.666764 85.5116-0.666569 85.5116-0.666667 7.59303e-07ZM4.0001 84.1783 0.000104987 92.1783-3.9999 84.1783Z"/><path transform="matrix(1 0 0 -1 320.5 781.457)" d="M0.666667-9.09488e-07 0.666763 70.2901-0.666571 70.2901-0.666667 9.09488e-07ZM4.00009 68.9567 0.000104987 76.9567-3.99991 68.9567Z"/><path transform="matrix(1 0 0 -1 368.5 780.499)" d="M0.666667-9.20954e-07 0.666762 69.332-0.666571 69.332-0.666667 9.20954e-07ZM4.00009 67.9986 0.000104987 75.9986-3.99991 67.9986Z"/><path transform="matrix(1 0 0 -1 421.5 780.881)" d="M0.666667-9.16339e-07 0.666762 69.7148-0.666571 69.7148-0.666667 9.16339e-07ZM4.00009 68.3814 0.000104987 76.3814-3.99991 68.3814Z"/><path transform="matrix(1 0 0 -1 467.5 780.839)" d="M0.666667-9.04995e-07 0.666763 70.6722-0.666571 70.6722-0.666667 9.04995e-07ZM4.00009 69.3388 0.000104987 77.3388-3.99991 69.3388Z"/><path fill-rule="evenodd" fill="#D1D1D1" stroke-miterlimit="8" stroke-width="2" stroke="#042433" d="M453 582.667C453 580.642 454.642 579 456.667 579L471.333 579C473.358 579 475 580.642 475 582.667L475 597.333C475 599.358 473.358 601 471.333 601L456.667 601C454.642 601 453 599.358 453 597.333Z"/><path fill-rule="evenodd" fill="#D1D1D1" stroke-miterlimit="8" stroke-width="2" stroke="#042433" d="M307 583.667C307 581.642 308.642 580 310.667 580L326.333 580C328.358 580 330 581.642 330 583.667L330 598.333C330 600.358 328.358 602 326.333 602L310.667 602C308.642 602 307 600.358 307 598.333Z"/><path fill-rule="evenodd" fill="#D1D1D1" stroke-miterlimit="8" stroke-width="2" stroke="#042433" d="M354 582.667C354 580.642 355.642 579 357.667 579L373.333 579C375.358 579 377 580.642 377 582.667L377 597.333C377 599.358 375.358 601 373.333 601L357.667 601C355.642 601 354 599.358 354 597.333Z"/><path transform="matrix(1 0 0 -1 318.5 656.568)" d="M0.666667-1.29449e-06 0.666759 47.4018-0.666575 47.4018-0.666667 1.29449e-06ZM4.00009 46.0684 0.000104987 54.0685-3.99991 46.0685Z"/><path transform="matrix(1 0 0 -1 366.5 654.85)" d="M0.666667-1.31193e-06 0.666759 46.6833-0.666575 46.6833-0.666667 1.31193e-06ZM4.00009 45.3499 0.000104987 53.3499-3.99991 45.3499Z"/><path transform="matrix(1 0 0 -1 419.5 655.568)" d="M0.666667-1.29449e-06 0.666759 47.4018-0.666575 47.4018-0.666667 1.29449e-06ZM4.00009 46.0684 0.000104987 54.0685-3.99991 46.0685Z"/><path transform="matrix(1 0 0 -1 464.5 655.568)" d="M0.666667-1.29449e-06 0.666759 47.4018-0.666575 47.4018-0.666667 1.29449e-06ZM4.00009 46.0684 0.000104987 54.0685-3.99991 46.0685Z"/><path fill-rule="evenodd" fill="#D1D1D1" stroke-miterlimit="8" stroke-width="2" stroke="#042433" d="M407 582.667C407 580.642 408.642 579 410.667 579L425.333 579C427.358 579 429 580.642 429 582.667L429 597.333C429 599.358 427.358 601 425.333 601L410.667 601C408.642 601 407 599.358 407 597.333Z"/><text transform="translate(578.338 1068)" font-size="24" font-weight="400" font-family="Arial,Arial_MSFontService,sans-serif">(b) MTP</text><g transform="translate(293 661)" filter="url(#fx17)"><g><path fill-rule="evenodd" fill="#EAE4D5" d="M6.82843 10.9952C6.82843 8.69394 8.69393 6.82843 10.9951 6.82843L125.662 6.82843C127.963 6.82843 129.828 8.69394 129.828 10.9952L129.828 27.6617C129.828 29.9629 127.963 31.8284 125.662 31.8284L10.9951 31.8284C8.69393 31.8284 6.82843 29.9629 6.82843 27.6617Z"/></g></g><path fill-rule="evenodd" fill="#EAE4D5" d="M297 669.167C297 666.866 298.866 665 301.167 665L415.833 665C418.134 665 420 666.866 420 669.167L420 685.833C420 688.134 418.134 690 415.833 690L301.167 690C298.866 690 297 688.134 297 685.833Z"/><path fill-rule="evenodd" fill="#D1D1D1" stroke-miterlimit="8" stroke-width="2" stroke="#042433" d="M309 673.667C309 672.746 309.746 672 310.667 672L318.333 672C319.254 672 320 672.746 320 673.667L320 680.333C320 681.254 319.254 682 318.333 682L310.667 682C309.746 682 309 681.254 309 680.333Z"/><path fill-rule="evenodd" fill="#D1D1D1" stroke-miterlimit="8" stroke-width="2" stroke="#042433" d="M382 673.667C382 672.746 382.746 672 383.667 672L391.333 672C392.254 672 393 672.746 393 673.667L393 680.333C393 681.254 392.254 682 391.333 682L383.667 682C382.746 682 382 681.254 382 680.333Z"/><path fill-rule="evenodd" fill="#D1D1D1" stroke-miterlimit="8" stroke-width="2" stroke="#042433" d="M400 673.667C400 672.746 400.746 672 401.667 672L409.333 672C410.254 672 411 672.746 411 673.667L411 680.333C411 681.254 410.254 682 409.333 682L401.667 682C400.746 682 400 681.254 400 680.333Z"/><g transform="translate(314 664)" filter="url(#fx18)" clip-path="url(#clip44)"><g><path transform="translate(11.429 19)" d="M0.799805-3.35791 0.799805-5.021 2.32959-5.021 2.32959-3.35791ZM4.52588-3.35791 4.52588-5.021 6.04932-5.021 6.04932-3.35791ZM8.24561-3.35791 8.24561-5.021 9.77539-5.021 9.77539-3.35791Z"/></g></g><text transform="translate(324.882 682)" font-size="13" font-weight="700" font-family="DengXian,DengXian_MSFontService,sans-serif">…</text><g transform="translate(325 663)" filter="url(#fx19)" clip-path="url(#clip45)"><g><path transform="translate(11.2624 20)" fill="#525252" d="M5.11621 0 3.33252 0 3.33252-6.72217C2.68083-6.11279 1.91276-5.66211 1.02832-5.37012L1.02832-6.98877C1.49382-7.14111 1.99951-7.42993 2.54541-7.85522 3.09131-8.28052 3.46582-8.77669 3.66895-9.34375L5.11621-9.34375ZM7.91097-2.39307 9.68831-2.57715C9.7391-2.17513 9.88932-1.85669 10.139-1.62183 10.3887-1.38696 10.6764-1.26953 11.0023-1.26953 11.3747-1.26953 11.6899-1.42082 11.9481-1.72339 12.2062-2.02596 12.3353-2.48193 12.3353-3.09131 12.3353-3.6626 12.2073-4.09106 11.9513-4.37671 11.6952-4.66235 11.362-4.80518 10.9515-4.80518 10.4395-4.80518 9.98031-4.57878 9.57406-4.12598L8.12679-4.33545 9.04085-9.17871 13.7572-9.17871 13.7572-7.50928 10.3929-7.50928 10.1136-5.92871C10.5114-6.1276 10.9176-6.22705 11.3324-6.22705 12.1237-6.22705 12.7944-5.93929 13.3446-5.36377 13.8947-4.78825 14.1698-4.04134 14.1698-3.12305 14.1698-2.3571 13.9476-1.67367 13.5033-1.07275 12.8981-0.25179 12.0581 0.158691 10.9832 0.158691 10.1242 0.158691 9.42383-0.0719401 8.88216-0.533203 8.3405-0.994466 8.01676-1.61442 7.91097-2.39307ZM19.7829 0 17.9992 0 17.9992-6.72217C17.3475-6.11279 16.5794-5.66211 15.695-5.37012L15.695-6.98877C16.1605-7.14111 16.6662-7.42993 17.2121-7.85522 17.758-8.28052 18.1325-8.77669 18.3356-9.34375L19.7829-9.34375ZM22.8696 0 22.8696-9.30566 24.6533-9.30566 24.6533-4.36719 26.7417-6.74121 28.938-6.74121 26.6338-4.27832 29.103 0 27.1797 0 25.4849-3.02783 24.6533-2.1582 24.6533 0Z"/></g></g><text transform="translate(335.716 682)" font-size="13" font-weight="700" font-family="Arial,Arial_MSFontService,sans-serif" fill="#525252">151k</text><g transform="translate(355 664)" filter="url(#fx20)" clip-path="url(#clip46)"><g><path transform="translate(10.5957 19)" d="M0.799805-3.35791 0.799805-5.021 2.32959-5.021 2.32959-3.35791ZM4.52588-3.35791 4.52588-5.021 6.04932-5.021 6.04932-3.35791ZM8.24561-3.35791 8.24561-5.021 9.77539-5.021 9.77539-3.35791Z"/></g></g><text transform="translate(365.049 682)" font-size="13" font-weight="700" font-family="DengXian,DengXian_MSFontService,sans-serif">…</text><g transform="translate(580 651)" filter="url(#fx21)"><g><path fill-rule="evenodd" fill="#FFFBDE" d="M6.82843 14.1618C6.82843 10.1117 10.1117 6.82843 14.1618 6.82843L158.495 6.82843C162.545 6.82843 165.828 10.1117 165.828 14.1618L165.828 43.495C165.828 47.5451 162.545 50.8284 158.495 50.8284L14.1618 50.8284C10.1117 50.8284 6.82843 47.5451 6.82843 43.495Z"/></g></g><path fill-rule="evenodd" fill="#FFFBDE" d="M584 662.333C584 658.283 587.283 655 591.333 655L735.667 655C739.717 655 743 658.283 743 662.333L743 691.667C743 695.717 739.717 699 735.667 699L591.333 699C587.283 699 584 695.717 584 691.667Z"/><path fill-rule="evenodd" fill="none" stroke-miterlimit="8" stroke-width="1.33333" stroke="#000000" d="M673.5 765.5 718.833 765.5"/><path transform="matrix(1 0 0 -1 673.5 765.719)" d="M0.666667-1.10712e-06 0.666761 56.5526-0.666573 56.5526-0.666667 1.10712e-06ZM4.00009 55.2192 0.000104987 63.2192-3.99991 55.2192Z"/><path transform="matrix(1 0 0 -1 719.5 765.801)" d="M0.666667-2.66113e-06 0.666745 19.6346-0.666588 19.6346-0.666667 2.66113e-06ZM4.00007 18.3013 0.000104987 26.3013-3.99993 18.3013Z"/><path transform="matrix(1 0 0 -1 696.5 779.838)" d="M0.666667-1.2648e-06 0.666759 48.671-0.666574 48.671-0.666667 1.2648e-06ZM4.00009 47.3376 0.000104987 55.3376-3.99991 47.3376Z"/><path fill-rule="evenodd" fill="#FFD966" stroke-miterlimit="8" stroke="#042433" d="M587.5 662.167C587.5 661.246 588.246 660.5 589.167 660.5L597.833 660.5C598.754 660.5 599.5 661.246 599.5 662.167L599.5 668.833C599.5 669.754 598.754 670.5 597.833 670.5L589.167 670.5C588.246 670.5 587.5 669.754 587.5 668.833Z"/><path fill-rule="evenodd" fill="#FFD966" stroke-miterlimit="8" stroke="#042433" d="M603.5 662.167C603.5 661.246 604.246 660.5 605.167 660.5L612.833 660.5C613.754 660.5 614.5 661.246 614.5 662.167L614.5 668.833C614.5 669.754 613.754 670.5 612.833 670.5L605.167 670.5C604.246 670.5 603.5 669.754 603.5 668.833Z"/><path fill-rule="evenodd" fill="#FFD966" stroke-miterlimit="8" stroke="#042433" d="M619.5 662.167C619.5 661.246 620.246 660.5 621.167 660.5L629.833 660.5C630.754 660.5 631.5 661.246 631.5 662.167L631.5 668.833C631.5 669.754 630.754 670.5 629.833 670.5L621.167 670.5C620.246 670.5 619.5 669.754 619.5 668.833Z"/><path fill-rule="evenodd" fill="#FBE3D6" stroke-miterlimit="8" stroke="#042433" d="M587.5 675.333C587.5 674.321 588.321 673.5 589.333 673.5L597.667 673.5C598.679 673.5 599.5 674.321 599.5 675.333L599.5 682.667C599.5 683.679 598.679 684.5 597.667 684.5L589.333 684.5C588.321 684.5 587.5 683.679 587.5 682.667Z"/><path fill-rule="evenodd" fill="#FBE3D6" stroke-miterlimit="8" stroke="#042433" d="M603.5 675.333C603.5 674.321 604.321 673.5 605.333 673.5L612.667 673.5C613.679 673.5 614.5 674.321 614.5 675.333L614.5 682.667C614.5 683.679 613.679 684.5 612.667 684.5L605.333 684.5C604.321 684.5 603.5 683.679 603.5 682.667Z"/><path fill-rule="evenodd" fill="#FBE3D6" stroke-miterlimit="8" stroke="#042433" d="M619.5 675.167C619.5 674.246 620.246 673.5 621.167 673.5L628.833 673.5C629.754 673.5 630.5 674.246 630.5 675.167L630.5 681.833C630.5 682.754 629.754 683.5 628.833 683.5L621.167 683.5C620.246 683.5 619.5 682.754 619.5 681.833Z"/><path fill-rule="evenodd" fill="#F6C6AD" stroke-miterlimit="8" stroke="#042433" d="M588.5 688.167C588.5 687.246 589.246 686.5 590.167 686.5L597.833 686.5C598.754 686.5 599.5 687.246 599.5 688.167L599.5 694.833C599.5 695.754 598.754 696.5 597.833 696.5L590.167 696.5C589.246 696.5 588.5 695.754 588.5 694.833Z"/><path fill-rule="evenodd" fill="#F6C6AD" stroke-miterlimit="8" stroke="#042433" d="M603.5 688.167C603.5 687.246 604.246 686.5 605.167 686.5L612.833 686.5C613.754 686.5 614.5 687.246 614.5 688.167L614.5 694.833C614.5 695.754 613.754 696.5 612.833 696.5L605.167 696.5C604.246 696.5 603.5 695.754 603.5 694.833Z"/><path fill-rule="evenodd" fill="#F6C6AD" stroke-miterlimit="8" stroke="#042433" d="M619.5 688.167C619.5 687.246 620.246 686.5 621.167 686.5L628.833 686.5C629.754 686.5 630.5 687.246 630.5 688.167L630.5 694.833C630.5 695.754 629.754 696.5 628.833 696.5L621.167 696.5C620.246 696.5 619.5 695.754 619.5 694.833Z"/><g transform="translate(625 653)" filter="url(#fx22)" clip-path="url(#clip47)"><g><path transform="translate(9.09735 16)" fill="#FFCA21" d="M0.676758-2.84131 0.676758-4.24854 1.97119-4.24854 1.97119-2.84131ZM3.82959-2.84131 3.82959-4.24854 5.11865-4.24854 5.11865-2.84131ZM6.97705-2.84131 6.97705-4.24854 8.27148-4.24854 8.27148-2.84131Z"/></g></g><text transform="translate(633.586 668)" font-size="11" font-weight="700" font-family="DengXian,DengXian_MSFontService,sans-serif" fill="#FFCA21">…</text><g transform="translate(633 653)" filter="url(#fx23)" clip-path="url(#clip48)"><g><path transform="translate(9.76404 16)" fill="#FFCA21" d="M4.3291 0 2.81982 0 2.81982-5.68799C2.26839-5.17236 1.61849-4.79102 0.870117-4.54395L0.870117-5.91357C1.264-6.04248 1.69189-6.28686 2.15381-6.64673 2.61572-7.00659 2.93262-7.42643 3.10449-7.90625L4.3291-7.90625ZM6.73584 0 6.73584-7.87402 8.24512-7.87402 8.24512-3.69531 10.0122-5.7041 11.8706-5.7041 9.9209-3.62012 12.0103 0 10.3828 0 8.94873-2.56201 8.24512-1.82617 8.24512 0Z"/></g></g><text transform="translate(642.252 668)" font-size="11" font-weight="700" font-family="Arial,Arial_MSFontService,sans-serif" fill="#FFCA21">1k</text><g transform="translate(645 653)" filter="url(#fx24)" clip-path="url(#clip49)"><g><path transform="translate(9.76404 16)" fill="#FFCA21" d="M0.676758-2.84131 0.676758-4.24854 1.97119-4.24854 1.97119-2.84131ZM3.82959-2.84131 3.82959-4.24854 5.11865-4.24854 5.11865-2.84131ZM6.97705-2.84131 6.97705-4.24854 8.27148-4.24854 8.27148-2.84131Z"/></g></g><text transform="translate(654.252 668)" font-size="11" font-weight="700" font-family="DengXian,DengXian_MSFontService,sans-serif" fill="#FFCA21">…</text><path fill-rule="evenodd" fill="#FFD966" stroke-miterlimit="8" stroke="#042433" d="M667.5 662.167C667.5 661.246 668.246 660.5 669.167 660.5L676.833 660.5C677.754 660.5 678.5 661.246 678.5 662.167L678.5 668.833C678.5 669.754 677.754 670.5 676.833 670.5L669.167 670.5C668.246 670.5 667.5 669.754 667.5 668.833Z"/><path fill-rule="evenodd" fill="#FFD966" stroke-miterlimit="8" stroke="#042433" d="M682.5 662.167C682.5 661.246 683.246 660.5 684.167 660.5L691.833 660.5C692.754 660.5 693.5 661.246 693.5 662.167L693.5 668.833C693.5 669.754 692.754 670.5 691.833 670.5L684.167 670.5C683.246 670.5 682.5 669.754 682.5 668.833Z"/><path fill-rule="evenodd" fill="#FBE3D6" stroke-miterlimit="8" stroke="#042433" d="M666.5 676.167C666.5 675.246 667.246 674.5 668.167 674.5L675.833 674.5C676.754 674.5 677.5 675.246 677.5 676.167L677.5 682.833C677.5 683.754 676.754 684.5 675.833 684.5L668.167 684.5C667.246 684.5 666.5 683.754 666.5 682.833Z"/><path fill-rule="evenodd" fill="#FBE3D6" stroke-miterlimit="8" stroke="#042433" d="M682.5 676.167C682.5 675.246 683.246 674.5 684.167 674.5L691.833 674.5C692.754 674.5 693.5 675.246 693.5 676.167L693.5 682.833C693.5 683.754 692.754 684.5 691.833 684.5L684.167 684.5C683.246 684.5 682.5 683.754 682.5 682.833Z"/><path fill-rule="evenodd" fill="#F6C6AD" stroke-miterlimit="8" stroke="#042433" d="M666.5 689.167C666.5 688.246 667.246 687.5 668.167 687.5L676.833 687.5C677.754 687.5 678.5 688.246 678.5 689.167L678.5 695.833C678.5 696.754 677.754 697.5 676.833 697.5L668.167 697.5C667.246 697.5 666.5 696.754 666.5 695.833Z"/><path fill-rule="evenodd" fill="#F6C6AD" stroke-miterlimit="8" stroke="#042433" d="M682.5 689.167C682.5 688.246 683.246 687.5 684.167 687.5L691.833 687.5C692.754 687.5 693.5 688.246 693.5 689.167L693.5 695.833C693.5 696.754 692.754 697.5 691.833 697.5L684.167 697.5C683.246 697.5 682.5 696.754 682.5 695.833Z"/><g transform="translate(624 666)" filter="url(#fx25)" clip-path="url(#clip50)"><g><path transform="translate(9.91351 16)" fill="#F2A77E" d="M0.676758-2.84131 0.676758-4.24854 1.97119-4.24854 1.97119-2.84131ZM3.82959-2.84131 3.82959-4.24854 5.11865-4.24854 5.11865-2.84131ZM6.97705-2.84131 6.97705-4.24854 8.27148-4.24854 8.27148-2.84131Z"/></g></g><text transform="translate(633.402 681)" font-size="11" font-weight="700" font-family="DengXian,DengXian_MSFontService,sans-serif" fill="#F2A77E">…</text><g transform="translate(633 666)" filter="url(#fx26)" clip-path="url(#clip51)"><g><path transform="translate(9.5802 16)" fill="#F2A77E" d="M4.3291 0 2.81982 0 2.81982-5.68799C2.26839-5.17236 1.61849-4.79102 0.870117-4.54395L0.870117-5.91357C1.264-6.04248 1.69189-6.28686 2.15381-6.64673 2.61572-7.00659 2.93262-7.42643 3.10449-7.90625L4.3291-7.90625ZM6.73584 0 6.73584-7.87402 8.24512-7.87402 8.24512-3.69531 10.0122-5.7041 11.8706-5.7041 9.9209-3.62012 12.0103 0 10.3828 0 8.94873-2.56201 8.24512-1.82617 8.24512 0Z"/></g></g><text transform="translate(642.068 681)" font-size="11" font-weight="700" font-family="Arial,Arial_MSFontService,sans-serif" fill="#F2A77E">1k</text><g transform="translate(645 666)" filter="url(#fx27)" clip-path="url(#clip52)"><g><path transform="translate(9.5802 16)" fill="#F2A77E" d="M0.676758-2.84131 0.676758-4.24854 1.97119-4.24854 1.97119-2.84131ZM3.82959-2.84131 3.82959-4.24854 5.11865-4.24854 5.11865-2.84131ZM6.97705-2.84131 6.97705-4.24854 8.27148-4.24854 8.27148-2.84131Z"/></g></g><text transform="translate(654.068 681)" font-size="11" font-weight="700" font-family="DengXian,DengXian_MSFontService,sans-serif" fill="#F2A77E">…</text><g transform="translate(624 679)" filter="url(#fx28)" clip-path="url(#clip53)"><g><path transform="translate(9.74829 17)" fill="#ED8A59" d="M0.676758-2.84131 0.676758-4.24854 1.97119-4.24854 1.97119-2.84131ZM3.82959-2.84131 3.82959-4.24854 5.11865-4.24854 5.11865-2.84131ZM6.97705-2.84131 6.97705-4.24854 8.27148-4.24854 8.27148-2.84131Z"/></g></g><text transform="translate(633.236 695)" font-size="11" font-weight="700" font-family="DengXian,DengXian_MSFontService,sans-serif" fill="#ED8A59">…</text><g transform="translate(633 679)" filter="url(#fx29)" clip-path="url(#clip54)"><g><path transform="translate(9.41498 17)" fill="#ED8A59" d="M4.3291 0 2.81982 0 2.81982-5.68799C2.26839-5.17236 1.61849-4.79102 0.870117-4.54395L0.870117-5.91357C1.264-6.04248 1.69189-6.28686 2.15381-6.64673 2.61572-7.00659 2.93262-7.42643 3.10449-7.90625L4.3291-7.90625ZM6.73584 0 6.73584-7.87402 8.24512-7.87402 8.24512-3.69531 10.0122-5.7041 11.8706-5.7041 9.9209-3.62012 12.0103 0 10.3828 0 8.94873-2.56201 8.24512-1.82617 8.24512 0Z"/></g></g><text transform="translate(641.903 695)" font-size="11" font-weight="700" font-family="Arial,Arial_MSFontService,sans-serif" fill="#ED8A59">1k</text><g transform="translate(645 679)" filter="url(#fx30)" clip-path="url(#clip55)"><g><path transform="translate(9.41498 17)" fill="#ED8A59" d="M0.676758-2.84131 0.676758-4.24854 1.97119-4.24854 1.97119-2.84131ZM3.82959-2.84131 3.82959-4.24854 5.11865-4.24854 5.11865-2.84131ZM6.97705-2.84131 6.97705-4.24854 8.27148-4.24854 8.27148-2.84131Z"/></g></g><text transform="translate(653.903 695)" font-size="11" font-weight="700" font-family="DengXian,DengXian_MSFontService,sans-serif" fill="#ED8A59">…</text><text transform="translate(696.137 669)" font-size="11" font-weight="700" font-family="Arial,Arial_MSFontService,sans-serif" fill="#FFCA21">Head 1</text><text transform="translate(696.023 682)" font-size="11" font-weight="700" font-family="Arial,Arial_MSFontService,sans-serif" fill="#F2A77E">Head 2</text><text transform="translate(696.137 695)" font-size="11" font-weight="700" font-family="Arial,Arial_MSFontService,sans-serif" fill="#ED8A59">Head 3</text><path fill-rule="evenodd" fill="#E8E8E8" stroke-miterlimit="8" stroke-width="2" stroke="#747474" d="M293 994.333C293 989.731 296.731 986 301.333 986L505.667 986C510.269 986 514 989.731 514 994.333L514 1027.67C514 1032.27 510.269 1036 505.667 1036L301.333 1036C296.731 1036 293 1032.27 293 1027.67Z"/><text transform="translate(340.13 1018)" font-size="20" font-weight="400" font-family="Arial,Arial_MSFontService,sans-serif">Text Tokenizer</text><path transform="matrix(1 0 0 -1 319.5 954.563)" d="M0.666667-7.60252e-07 0.666764 85.3966-0.666569 85.3966-0.666667 7.60252e-07ZM4.0001 84.0632 0.000104987 92.0632-3.9999 84.0632Z"/></g></svg>